<svg version="1.2" baseProfile="tiny-ps" xmlns="http://www.w3.org/2000/svg" viewBox="0 0 1200 900" width="1200" height="900">
	<title>971-ai</title>
	<defs>
		<radialGradient id="grd1" gradientUnits="userSpaceOnUse"  cx="132.377" cy="-204.28" r="1592.866">
			<stop offset="0.004" stop-color="#4c02f1"  />
			<stop offset="1" stop-color="#06044a"  />
		</radialGradient>
		<linearGradient id="grd2" gradientUnits="userSpaceOnUse"  x1="962.118" y1="590.719" x2="1027.341" y2="590.719">
			<stop offset="0" stop-color="#e39a65"  />
			<stop offset="1" stop-color="#e95f8d"  />
		</linearGradient>
		<linearGradient id="grd3" gradientUnits="userSpaceOnUse"  x1="872.815" y1="488.849" x2="982.372" y2="488.849">
			<stop offset="0" stop-color="#e39a65"  />
			<stop offset="1" stop-color="#e95f8d"  />
		</linearGradient>
		<linearGradient id="grd4" gradientUnits="userSpaceOnUse"  x1="150.37" y1="525.553" x2="259.927" y2="525.553">
			<stop offset="0" stop-color="#e39a65"  />
			<stop offset="1" stop-color="#e95f8d"  />
		</linearGradient>
		<linearGradient id="grd5" gradientUnits="userSpaceOnUse"  x1="277.919" y1="379.588" x2="862.636" y2="379.588">
			<stop offset="0" stop-color="#e39a65"  />
			<stop offset="1" stop-color="#e95f8d"  />
		</linearGradient>
		<radialGradient id="grd6" gradientUnits="userSpaceOnUse"  cx="601.567" cy="121.482" r="443.94">
			<stop offset="0" stop-color="#e39a65"  />
			<stop offset="0.474" stop-color="#a92ffb"  />
			<stop offset="0.742" stop-color="#6507fa"  />
			<stop offset="0.802" stop-color="#0d0c6f"  />
		</radialGradient>
		<radialGradient id="grd7" gradientUnits="userSpaceOnUse"  cx="327.746" cy="480.041" r="488.345">
			<stop offset="0" stop-color="#e39a65"  />
			<stop offset="0.474" stop-color="#a92ffb"  />
			<stop offset="0.683" stop-color="#6507fa"  />
			<stop offset="0.738" stop-color="#0d0c6f"  />
		</radialGradient>
		<radialGradient id="grd8" gradientUnits="userSpaceOnUse"  cx="373.748" cy="382.512" r="435.524">
			<stop offset="0" stop-color="#e39a65"  />
			<stop offset="0.474" stop-color="#a92ffb"  />
			<stop offset="0.726" stop-color="#6507fa"  />
			<stop offset="1" stop-color="#3919bb"  />
		</radialGradient>
		<radialGradient id="grd9" gradientUnits="userSpaceOnUse"  cx="483.11" cy="215.243" r="444.029">
			<stop offset="0" stop-color="#e39a65"  />
			<stop offset="0.474" stop-color="#a92ffb"  />
			<stop offset="0.726" stop-color="#6507fa"  />
			<stop offset="1" stop-color="#3919bb"  />
		</radialGradient>
		<linearGradient id="grd10" gradientUnits="userSpaceOnUse"  x1="531.903" y1="135.897" x2="887.732" y2="135.897">
			<stop offset="0" stop-color="#3919bb"  />
			<stop offset="1" stop-color="#6507fa"  />
		</linearGradient>
		<radialGradient id="grd11" gradientUnits="userSpaceOnUse"  cx="320.978" cy="120.584" r="691.564">
			<stop offset="0" stop-color="#e39a65"  />
			<stop offset="0.474" stop-color="#a92ffb"  />
			<stop offset="0.726" stop-color="#6507fa"  />
			<stop offset="1" stop-color="#3919bb"  />
		</radialGradient>
		<linearGradient id="grd12" gradientUnits="userSpaceOnUse"  x1="286.819" y1="332.602" x2="440.37" y2="332.602">
			<stop offset="0" stop-color="#e39a65"  />
			<stop offset="1" stop-color="#e95f8d"  />
		</linearGradient>
		<radialGradient id="grd13" gradientUnits="userSpaceOnUse"  cx="300.432" cy="254.725" r="330.699">
			<stop offset="0" stop-color="#e39a65"  />
			<stop offset="0.153" stop-color="#a92ffb"  />
			<stop offset="0.409" stop-color="#3919bb"  />
			<stop offset="0.931" stop-color="#3919bb"  />
		</radialGradient>
		<linearGradient id="grd14" gradientUnits="userSpaceOnUse"  x1="306.849" y1="171.101" x2="424.268" y2="171.101">
			<stop offset="0" stop-color="#e39a65"  />
			<stop offset="0.252" stop-color="#a92ffb"  />
			<stop offset="0.556" stop-color="#3919bb"  />
		</linearGradient>
		<linearGradient id="grd15" gradientUnits="userSpaceOnUse"  x1="321.702" y1="176.885" x2="409.482" y2="176.885">
			<stop offset="0" stop-color="#4f1fec"  />
			<stop offset="1" stop-color="#a92ffb"  />
		</linearGradient>
		<linearGradient id="grd16" gradientUnits="userSpaceOnUse"  x1="319.416" y1="176.885" x2="407.195" y2="176.885">
			<stop offset="0" stop-color="#4f1fec"  />
			<stop offset="1" stop-color="#a92ffb"  />
		</linearGradient>
		<linearGradient id="grd17" gradientUnits="userSpaceOnUse"  x1="318.399" y1="176.859" x2="437.423" y2="176.859">
			<stop offset="0" stop-color="#131060"  />
			<stop offset="0.607" stop-color="#740df8"  />
			<stop offset="1" stop-color="#e8975b"  />
		</linearGradient>
		<radialGradient id="grd18" gradientUnits="userSpaceOnUse"  cx="298.176" cy="183.365" r="196.782">
			<stop offset="0" stop-color="#e39a65"  />
			<stop offset="0.252" stop-color="#a92ffb"  />
			<stop offset="0.736" stop-color="#3919bb"  />
		</radialGradient>
		<linearGradient id="grd19" gradientUnits="userSpaceOnUse"  x1="357.965" y1="229.936" x2="374.775" y2="229.936">
			<stop offset="0" stop-color="#131060"  />
			<stop offset="0.607" stop-color="#740df8"  />
			<stop offset="1" stop-color="#e8975b"  />
		</linearGradient>
	</defs>
	<style>
		tspan { white-space:pre }
		.shp0 { fill: url(#grd1) } 
		.shp1 { fill: #ffffff } 
		.shp2 { fill: url(#grd2) } 
		.shp3 { fill: url(#grd3) } 
		.shp4 { fill: url(#grd4) } 
		.shp5 { opacity: 0.6;fill: #020230 } 
		.shp6 { fill: url(#grd5) } 
		.shp7 { fill: url(#grd6) } 
		.shp8 { fill: url(#grd7) } 
		.shp9 { fill: url(#grd8) } 
		.shp10 { fill: #06033e } 
		.shp11 { fill: url(#grd9) } 
		.shp12 { fill: url(#grd10) } 
		.shp13 { opacity: 0.4;fill: #06033e } 
		.shp14 { opacity: 0.502;fill: #06033e } 
		.shp15 { fill: url(#grd11) } 
		.shp16 { fill: #e8975b } 
		.shp17 { fill: #f8359e } 
		.shp18 { fill: url(#grd12) } 
		.shp19 { fill: url(#grd13) } 
		.shp20 { fill: url(#grd14) } 
		.shp21 { fill: url(#grd15) } 
		.shp22 { fill: url(#grd16) } 
		.shp23 { fill: url(#grd17) } 
		.shp24 { fill: url(#grd18) } 
		.shp25 { fill: #0c0a78 } 
		.shp26 { fill: url(#grd19) } 
		.shp27 { opacity: 0.502;fill: #ffffff } 
	</style>
	<g id="\321\353\356\351 1">
		<path id="&lt;Path&gt;" class="shp0" d="M1200 900L0 900L0 0L1200 0L1200 900Z" />
		<g id="&lt;Group&gt;">
			<path id="&lt;Compound Path&gt;" fill-rule="evenodd" class="shp1" d="M527.23 819.49L527.23 800.06L533.3 800.06C536.68 800.06 538.37 801.92 538.37 805.64C538.37 806.65 538.23 807.51 537.97 808.23C537.7 808.94 537.32 809.5 536.82 809.9C536.32 810.31 535.75 810.59 535.12 810.77C534.49 810.95 533.76 811.03 532.94 811.03L531.18 811.03L531.18 819.49L527.23 819.49ZM531.18 808.27L532.45 808.27C533.32 808.27 533.91 808.07 534.21 807.68C534.5 807.28 534.65 806.59 534.65 805.6C534.65 805.09 534.63 804.69 534.58 804.39C534.54 804.1 534.45 803.82 534.3 803.56C534.16 803.3 533.94 803.12 533.64 803.01C533.33 802.9 532.94 802.84 532.45 802.84L531.18 802.84L531.18 808.27Z" />
			<path id="&lt;Compound Path&gt;" fill-rule="evenodd" class="shp1" d="M540.32 819.49L540.32 800.06L545.23 800.06C546.26 800.06 547.15 800.14 547.89 800.31C548.64 800.47 549.29 800.74 549.87 801.12C550.44 801.5 550.87 802.03 551.16 802.71C551.44 803.39 551.58 804.23 551.58 805.22C551.58 806.47 551.41 807.48 551.05 808.26C550.69 809.03 550.08 809.62 549.22 810.01L551.9 819.49L547.87 819.49L545.64 810.73L544.27 810.73L544.27 819.49L540.32 819.49ZM544.27 808.34L545.26 808.34C546.21 808.34 546.89 808.11 547.28 807.66C547.68 807.22 547.88 806.5 547.88 805.51C547.88 804.55 547.71 803.85 547.36 803.41C547.01 802.97 546.39 802.75 545.48 802.75L544.27 802.75L544.27 808.34Z" />
			<path id="&lt;Compound Path&gt;" fill-rule="evenodd" class="shp1" d="M559.65 819.75C558.59 819.75 557.69 819.61 556.95 819.32C556.21 819.04 555.62 818.61 555.17 818.05C554.73 817.48 554.41 816.81 554.21 816.05C554.01 815.28 553.92 814.38 553.92 813.34L553.92 806.17C553.92 805.13 554.01 804.23 554.21 803.47C554.41 802.71 554.73 802.05 555.17 801.49C555.62 800.94 556.21 800.52 556.95 800.24C557.69 799.96 558.59 799.82 559.65 799.82C561.7 799.82 563.17 800.35 564.07 801.42C564.96 802.49 565.41 804.08 565.41 806.17L565.41 813.34C565.41 815.44 564.96 817.03 564.07 818.12C563.17 819.21 561.7 819.75 559.65 819.75ZM558.89 816.76C559.1 816.86 559.35 816.9 559.65 816.9C559.94 816.9 560.2 816.86 560.41 816.76C560.63 816.66 560.8 816.54 560.92 816.39C561.04 816.24 561.14 816.05 561.21 815.8C561.28 815.56 561.32 815.33 561.34 815.11C561.36 814.88 561.37 814.62 561.37 814.3L561.37 805.21C561.37 804.9 561.36 804.63 561.34 804.41C561.32 804.18 561.28 803.96 561.21 803.72C561.14 803.49 561.04 803.3 560.92 803.15C560.8 803.01 560.63 802.89 560.41 802.8C560.2 802.7 559.94 802.65 559.65 802.65C559.35 802.65 559.1 802.7 558.89 802.8C558.67 802.89 558.51 803.01 558.39 803.15C558.28 803.3 558.18 803.49 558.12 803.73C558.05 803.97 558.01 804.19 557.99 804.41C557.97 804.63 557.96 804.9 557.96 805.21L557.96 814.3C557.96 814.62 557.97 814.88 557.99 815.11C558.01 815.33 558.05 815.56 558.12 815.8C558.18 816.05 558.28 816.24 558.39 816.39C558.51 816.54 558.67 816.66 558.89 816.76Z" />
			<path id="&lt;Compound Path&gt;" class="shp1" d="M572.98 819.76C572.02 819.76 571.2 819.61 570.51 819.3C569.82 818.98 569.28 818.53 568.87 817.92C568.46 817.32 568.17 816.62 567.98 815.82C567.8 815.02 567.71 814.09 567.71 813.03L567.71 806.63C567.71 805.75 567.76 804.98 567.88 804.3C567.99 803.62 568.19 802.99 568.46 802.41C568.73 801.84 569.08 801.37 569.51 801C569.94 800.63 570.48 800.34 571.14 800.13C571.79 799.92 572.55 799.82 573.41 799.82C574.42 799.82 575.29 799.95 576.02 800.2C576.75 800.45 577.32 800.83 577.75 801.34C578.17 801.85 578.48 802.44 578.67 803.12C578.86 803.8 578.96 804.6 578.96 805.51L578.96 806.62L575.13 806.62L575.13 805.3C575.13 804.94 575.12 804.65 575.1 804.42C575.09 804.2 575.05 803.96 574.99 803.72C574.92 803.47 574.83 803.28 574.72 803.14C574.6 802.99 574.44 802.88 574.23 802.79C574.02 802.7 573.77 802.65 573.46 802.65C573.14 802.65 572.87 802.71 572.66 802.82C572.44 802.94 572.27 803.07 572.15 803.23C572.03 803.39 571.94 803.62 571.87 803.91C571.81 804.2 571.77 804.46 571.76 804.68C571.75 804.91 571.74 805.21 571.74 805.57L571.74 814C571.74 814.94 571.87 815.66 572.13 816.15C572.39 816.65 572.87 816.89 573.57 816.89C574.28 816.89 574.77 816.63 575.05 816.1C575.33 815.57 575.47 814.82 575.47 813.85L575.47 811.94L573.56 811.94L573.56 809.5L579.03 809.5L579.03 819.49L576.44 819.49L576.18 817.71C575.6 819.08 574.53 819.76 572.98 819.76Z" />
			<path id="&lt;Compound Path&gt;" fill-rule="evenodd" class="shp1" d="M581.7 819.49L581.7 800.06L586.61 800.06C587.64 800.06 588.53 800.14 589.27 800.31C590.01 800.47 590.67 800.74 591.25 801.12C591.82 801.5 592.25 802.03 592.53 802.71C592.82 803.39 592.96 804.23 592.96 805.22C592.96 806.47 592.78 807.48 592.43 808.26C592.07 809.03 591.46 809.62 590.6 810.01L593.28 819.49L589.25 819.49L587.02 810.73L585.65 810.73L585.65 819.49L581.7 819.49ZM585.65 808.34L586.64 808.34C587.59 808.34 588.26 808.11 588.66 807.66C589.06 807.22 589.26 806.5 589.26 805.51C589.26 804.55 589.08 803.85 588.74 803.41C588.39 802.97 587.76 802.75 586.86 802.75L585.65 802.75L585.65 808.34Z" />
			<path id="&lt;Compound Path&gt;" fill-rule="evenodd" class="shp1" d="M594.63 819.49L598.42 800.06L602.76 800.06L606.55 819.49L602.88 819.49L602.16 815.19L599.08 815.19L598.37 819.49L594.63 819.49ZM599.46 812.74L601.76 812.74L600.6 805.01L599.46 812.74Z" />
			<path id="&lt;Compound Path&gt;" class="shp1" d="M608.42 819.49L608.74 800.06L612.9 800.06L615.35 812.46L617.92 800.06L621.97 800.06L622.28 819.49L619.39 819.49L619.12 806.38L616.6 819.49L614.19 819.49L611.6 806.31L611.35 819.49L608.42 819.49Z" />
			<path id="&lt;Compound Path&gt;" class="shp1" d="M625.07 819.49L625.39 800.06L629.55 800.06L632 812.46L634.58 800.06L638.62 800.06L638.94 819.49L636.04 819.49L635.77 806.38L633.25 819.49L630.84 819.49L628.25 806.31L628 819.49L625.07 819.49Z" />
			<path id="&lt;Compound Path&gt;" class="shp1" d="M641.84 819.49L641.84 800.06L645.77 800.06L645.77 819.49L641.84 819.49Z" />
			<path id="&lt;Compound Path&gt;" class="shp1" d="M648.7 819.49L648.7 800.06L651.45 800.06L655.79 810.15L655.79 800.06L659.07 800.06L659.07 819.49L656.43 819.49L652.07 808.76L652.07 819.49L648.7 819.49Z" />
			<path id="&lt;Compound Path&gt;" class="shp1" d="M666.93 819.76C665.97 819.76 665.15 819.61 664.46 819.3C663.77 818.98 663.23 818.53 662.82 817.92C662.41 817.32 662.12 816.62 661.93 815.82C661.75 815.02 661.66 814.09 661.66 813.03L661.66 806.63C661.66 805.75 661.71 804.98 661.83 804.3C661.94 803.62 662.14 802.99 662.41 802.41C662.68 801.84 663.03 801.37 663.46 801C663.89 800.63 664.43 800.34 665.08 800.13C665.74 799.92 666.5 799.82 667.35 799.82C668.37 799.82 669.24 799.95 669.97 800.2C670.69 800.45 671.27 800.83 671.69 801.34C672.12 801.85 672.43 802.44 672.62 803.12C672.81 803.8 672.91 804.6 672.91 805.51L672.91 806.62L669.08 806.62L669.08 805.3C669.08 804.94 669.07 804.65 669.05 804.42C669.04 804.2 669 803.96 668.94 803.72C668.87 803.47 668.78 803.28 668.67 803.14C668.55 802.99 668.39 802.88 668.18 802.79C667.97 802.7 667.72 802.65 667.41 802.65C667.09 802.65 666.82 802.71 666.6 802.82C666.39 802.94 666.22 803.07 666.1 803.23C665.98 803.39 665.89 803.62 665.82 803.91C665.76 804.2 665.72 804.46 665.71 804.68C665.69 804.91 665.69 805.21 665.69 805.57L665.69 814C665.69 814.94 665.82 815.66 666.08 816.15C666.33 816.65 666.82 816.89 667.52 816.89C668.23 816.89 668.72 816.63 669 816.1C669.28 815.57 669.42 814.82 669.42 813.85L669.42 811.94L667.51 811.94L667.51 809.5L672.98 809.5L672.98 819.49L670.39 819.49L670.13 817.71C669.55 819.08 668.48 819.76 666.93 819.76Z" />
		</g>
		<path id="&lt;Compound Path&gt;" fill-rule="evenodd" class="shp2" d="M994.73 633.01C992.32 633.01 989.91 632.39 987.77 631.15L964.29 617.6C962.93 616.81 962.12 615.4 962.12 613.83C962.12 612.26 962.93 610.85 964.29 610.07L987.77 596.51C992.06 594.04 997.4 594.03 1001.69 596.51L1025.16 610.07C1026.53 610.85 1027.34 612.26 1027.34 613.83C1027.34 615.4 1026.53 616.81 1025.16 617.6L1001.69 631.15C999.55 632.39 997.14 633.01 994.73 633.01ZM994.73 598.38C992.96 598.38 991.2 598.83 989.63 599.74L966.15 613.29C965.88 613.45 965.84 613.7 965.84 613.83C965.84 613.97 965.88 614.22 966.15 614.37L989.63 627.93C989.63 627.93 989.63 627.93 989.63 627.93C992.77 629.74 996.68 629.74 999.83 627.93L1023.31 614.37C1023.58 614.22 1023.62 613.97 1023.62 613.83C1023.62 613.7 1023.58 613.45 1023.31 613.29L999.83 599.74C998.26 598.83 996.49 598.38 994.73 598.38Z" />
		<path id="&lt;Compound Path&gt;" fill-rule="evenodd" class="shp3" d="M927.59 556.11C923.68 556.11 919.77 555.1 916.28 553.09L875.89 529.76C873.96 528.65 872.82 526.67 872.82 524.45C872.82 522.23 873.96 520.24 875.89 519.13L916.28 495.81C923.25 491.78 931.93 491.78 938.9 495.81L979.3 519.13C981.22 520.24 982.37 522.23 982.37 524.44C982.37 526.66 981.23 528.65 979.3 529.76L938.91 553.09C935.42 555.1 931.5 556.11 927.59 556.11ZM918.14 549.86C923.98 553.23 931.21 553.23 937.05 549.86L977.44 526.54C978.53 525.91 978.65 524.87 978.65 524.45C978.65 524.03 978.53 522.98 977.44 522.35L937.04 499.03C931.21 495.67 923.97 495.67 918.14 499.03L877.75 522.35C876.66 522.98 876.54 524.03 876.54 524.45C876.54 524.87 876.66 525.91 877.75 526.54L918.14 549.86Z" />
		<path id="&lt;Compound Path&gt;" fill-rule="evenodd" class="shp4" d="M205.15 592.81C201.24 592.81 197.33 591.81 193.84 589.79L153.44 566.47C151.52 565.36 150.37 563.37 150.37 561.15C150.37 558.93 151.52 556.94 153.44 555.83L193.84 532.51C200.81 528.48 209.48 528.48 216.46 532.51L256.85 555.84C258.78 556.95 259.93 558.93 259.93 561.15C259.93 563.37 258.78 565.36 256.85 566.47L216.46 589.79C212.97 591.81 209.06 592.81 205.15 592.81ZM205.15 533.21C201.88 533.21 198.61 534.05 195.7 535.73L155.3 559.06C154.21 559.69 154.09 560.73 154.09 561.15C154.09 561.57 154.21 562.62 155.3 563.25L195.7 586.57C201.53 589.93 208.77 589.93 214.6 586.57L255 563.25C256.09 562.62 256.2 561.57 256.2 561.15C256.2 560.73 256.09 559.69 255 559.06L214.6 535.73C211.68 534.05 208.41 533.21 205.15 533.21Z" />
		<g id="&lt;Group&gt;">
			<path id="&lt;Path&gt;" class="shp5" d="M614.24 694.56L325.38 527.79C321.17 525.36 321.7 521.11 326.56 518.3L511.95 411.27C516.81 408.46 524.17 408.15 528.38 410.59L817.24 577.36C821.45 579.79 820.92 584.04 816.06 586.84L630.67 693.88C625.81 696.69 618.45 696.99 614.24 694.56Z" />
			<path id="&lt;Compound Path&gt;" fill-rule="evenodd" class="shp6" d="M620.86 724.67C617.48 724.67 614.24 723.97 611.77 722.54L611.77 722.54L282.09 532.2C279.4 530.65 277.92 528.41 277.92 525.89C277.92 523 279.93 520.18 283.44 518.15L508.17 386.49C514.33 382.93 523.39 382.59 528.79 385.71L858.46 576.05C861.15 577.6 862.64 579.84 862.64 582.36C862.64 585.25 860.62 588.07 857.11 590.09L632.39 721.76C629.05 723.69 624.86 724.67 620.86 724.67ZM519.74 387.31C516.36 387.31 512.77 388.13 510.04 389.71L285.31 521.37C283.01 522.7 281.64 524.39 281.64 525.89C281.64 527.34 282.9 528.37 283.95 528.98L613.63 719.32C613.63 719.32 613.63 719.32 613.63 719.32C617.84 721.75 625.58 721.39 630.51 718.54L855.24 586.88C857.55 585.55 858.91 583.86 858.91 582.36C858.91 580.91 857.66 579.88 856.6 579.27L526.93 388.93C525.05 387.85 522.46 387.31 519.74 387.31Z" />
			<path id="&lt;Path&gt;" class="shp7" d="M899.25 311.98L834.19 523.24C833.36 525.93 831.64 527.79 829.56 528.62L829.57 528.63L824.48 530.41L825.19 528.86C824.49 528.68 823.77 528.4 823.08 528L535.35 361.88C530.83 359.27 528.47 352.9 530.08 347.66L595.14 136.4C595.54 135.1 596.15 134 596.9 133.11L595.03 132.67L600.35 130.81C600.36 130.81 600.37 130.8 600.38 130.8L600.38 130.8L600.38 130.8C602.21 130.27 604.28 130.5 606.25 131.64L893.98 297.76C898.5 300.37 900.86 306.74 899.25 311.98Z" />
			<path id="&lt;Path&gt;" class="shp8" d="M820 534.05L818.25 542.41L818.24 542.39C817.91 544 816.61 545.63 814.33 546.94L630.25 653.22C625.42 656.01 618.12 656.31 613.94 653.9L327.11 488.3C325.49 487.36 324.59 486.15 324.36 484.86L324.35 484.87L322.63 476.28L328.75 478.61L512.37 372.6C517.2 369.81 524.5 369.51 528.68 371.93L812.88 536.01L812.78 535.88L820 534.05Z" />
			<path id="&lt;Path&gt;" class="shp9" d="M614.24 646.34L325.38 479.57C321.17 477.14 321.7 472.89 326.56 470.08L511.95 363.05C516.81 360.24 524.17 359.93 528.38 362.37L817.24 529.14C821.45 531.57 820.92 535.82 816.06 538.62L630.67 645.66C625.81 648.47 618.45 648.77 614.24 646.34Z" />
			<path id="&lt;Path&gt;" class="shp1" d="M819.87 532.14C820.54 534.3 819.27 536.77 816.06 538.62L630.67 645.66C625.81 648.47 618.45 648.77 614.24 646.34L325.38 479.57C323.01 478.2 322.2 476.26 322.75 474.32C323.1 475.44 323.94 476.49 325.38 477.32L614.24 644.09C618.45 646.52 625.81 646.22 630.67 643.41L816.06 536.37C818.19 535.15 819.43 533.64 819.87 532.14Z" />
			<g id="&lt;Group&gt;" style="opacity: 0.4">
				<path id="&lt;Path&gt;" class="shp10" d="M463.16 452.5L453.41 446.87C452.63 446.42 452.73 445.63 453.63 445.11L465.14 438.46C466.04 437.94 467.41 437.88 468.2 438.34L477.95 443.97C478.73 444.42 478.63 445.21 477.73 445.73L466.22 452.38C465.31 452.9 463.95 452.95 463.16 452.5Z" />
				<path id="&lt;Path&gt;" class="shp10" d="M478.22 461.2L468.47 455.57C467.69 455.11 467.79 454.33 468.69 453.8L480.2 447.16C481.11 446.64 482.47 446.58 483.26 447.03L493.01 452.66C493.79 453.11 493.69 453.9 492.79 454.42L481.28 461.07C480.37 461.59 479.01 461.65 478.22 461.2Z" />
				<path id="&lt;Path&gt;" class="shp10" d="M493.28 469.89L483.53 464.26C482.75 463.81 482.85 463.02 483.75 462.5L495.26 455.85C496.17 455.33 497.53 455.27 498.32 455.73L508.07 461.36C508.85 461.81 508.75 462.6 507.85 463.12L496.34 469.77C495.43 470.29 494.07 470.34 493.28 469.89Z" />
				<path id="&lt;Path&gt;" class="shp10" d="M514.11 462.71L504.36 457.08C503.58 456.63 503.68 455.84 504.58 455.32L514.24 449.74C515.15 449.22 516.51 449.16 517.3 449.61L527.05 455.24C527.83 455.69 527.74 456.48 526.83 457.01L517.17 462.59C516.26 463.11 514.9 463.16 514.11 462.71Z" />
				<path id="&lt;Path&gt;" class="shp10" d="M529.17 471.41L519.42 465.78C518.64 465.32 518.74 464.53 519.64 464.01L529.3 458.43C530.21 457.91 531.58 457.86 532.36 458.31L542.11 463.94C542.89 464.39 542.8 465.18 541.89 465.7L532.23 471.28C531.32 471.8 529.96 471.86 529.17 471.41Z" />
				<path id="&lt;Path&gt;" class="shp10" d="M544.23 480.1L534.48 474.47C533.7 474.02 533.8 473.23 534.7 472.71L544.36 467.13C545.27 466.61 546.64 466.55 547.42 467L557.17 472.63C557.95 473.08 557.86 473.87 556.95 474.4L547.29 479.98C546.38 480.5 545.02 480.55 544.23 480.1Z" />
				<path id="&lt;Path&gt;" class="shp10" d="M559.29 488.8L549.54 483.17C548.76 482.72 548.86 481.93 549.76 481.4L559.42 475.82C560.33 475.3 561.7 475.25 562.48 475.7L572.23 481.33C573.01 481.78 572.92 482.57 572.01 483.09L562.35 488.67C561.45 489.19 560.08 489.25 559.29 488.8Z" />
				<path id="&lt;Path&gt;" class="shp10" d="M574.36 497.49L564.6 491.86C563.82 491.41 563.92 490.62 564.82 490.1L574.49 484.52C575.39 484 576.76 483.94 577.54 484.39L587.29 490.02C588.08 490.48 587.98 491.27 587.07 491.79L577.41 497.37C576.51 497.89 575.14 497.94 574.36 497.49Z" />
				<path id="&lt;Path&gt;" class="shp10" d="M589.42 506.19L579.66 500.56C578.88 500.11 578.98 499.32 579.88 498.79L589.55 493.21C590.45 492.69 591.82 492.64 592.6 493.09L602.35 498.72C603.14 499.17 603.04 499.96 602.13 500.48L592.47 506.06C591.57 506.58 590.2 506.64 589.42 506.19Z" />
				<path id="&lt;Path&gt;" class="shp10" d="M604.48 514.88L594.72 509.25C593.94 508.8 594.04 508.01 594.94 507.49L604.61 501.91C605.51 501.39 606.88 501.33 607.66 501.78L617.41 507.41C618.2 507.87 618.1 508.66 617.19 509.18L607.53 514.76C606.63 515.28 605.26 515.34 604.48 514.88Z" />
				<path id="&lt;Path&gt;" class="shp10" d="M619.54 523.58L609.78 517.95C609 517.5 609.1 516.71 610 516.18L619.67 510.61C620.57 510.08 621.94 510.03 622.72 510.48L632.47 516.11C633.26 516.56 633.16 517.35 632.25 517.87L622.59 523.45C621.69 523.97 620.32 524.03 619.54 523.58Z" />
				<path id="&lt;Path&gt;" class="shp10" d="M634.6 532.27L624.85 526.64C624.06 526.19 624.16 525.4 625.06 524.88L634.73 519.3C635.63 518.78 637 518.72 637.78 519.17L647.53 524.8C648.32 525.26 648.22 526.05 647.32 526.57L637.65 532.15C636.75 532.67 635.38 532.73 634.6 532.27Z" />
				<path id="&lt;Path&gt;" class="shp10" d="M649.66 540.97L639.91 535.34C639.12 534.89 639.22 534.1 640.13 533.57L649.79 528C650.69 527.47 652.06 527.42 652.84 527.87L662.6 533.5C663.38 533.95 663.28 534.74 662.38 535.26L652.71 540.84C651.81 541.36 650.44 541.42 649.66 540.97Z" />
				<path id="&lt;Path&gt;" class="shp10" d="M536.3 458.6L526.55 452.96C525.77 452.51 525.87 451.72 526.77 451.2L536.43 445.62C537.34 445.1 538.71 445.04 539.49 445.5L549.24 451.13C550.02 451.58 549.93 452.37 549.02 452.89L539.36 458.47C538.45 458.99 537.09 459.05 536.3 458.6Z" />
				<path id="&lt;Path&gt;" class="shp10" d="M521.02 449.77L511.27 444.14C510.48 443.69 510.58 442.9 511.49 442.38L521.15 436.8C522.05 436.27 523.42 436.22 524.2 436.67L533.96 442.3C534.74 442.75 534.64 443.54 533.74 444.06L524.07 449.64C523.17 450.17 521.8 450.22 521.02 449.77Z" />
				<path id="&lt;Path&gt;" class="shp10" d="M505.71 440.93L484.7 428.8C483.92 428.35 484.02 427.56 484.92 427.04L494.59 421.46C495.49 420.94 496.86 420.88 497.64 421.33L518.65 433.46C519.43 433.91 519.33 434.7 518.43 435.23L508.76 440.8C507.86 441.33 506.49 441.38 505.71 440.93Z" />
				<path id="&lt;Path&gt;" class="shp10" d="M516.41 430.18L499.36 420.34C498.58 419.89 498.68 419.1 499.58 418.58L509.25 413C510.15 412.48 511.52 412.42 512.3 412.87L529.35 422.71C530.13 423.16 530.03 423.95 529.13 424.48L519.47 430.05C518.56 430.58 517.19 430.63 516.41 430.18Z" />
				<path id="&lt;Path&gt;" class="shp10" d="M551.36 467.29L541.61 461.66C540.83 461.21 540.93 460.42 541.83 459.9L551.49 454.32C552.4 453.8 553.77 453.74 554.55 454.19L564.3 459.82C565.08 460.27 564.99 461.06 564.08 461.58L554.42 467.16C553.52 467.69 552.15 467.74 551.36 467.29Z" />
				<path id="&lt;Path&gt;" class="shp10" d="M566.43 475.99L556.67 470.36C555.89 469.9 555.99 469.11 556.89 468.59L566.55 463.01C567.46 462.49 568.83 462.43 569.61 462.89L579.36 468.52C580.15 468.97 580.05 469.76 579.14 470.28L569.48 475.86C568.58 476.38 567.21 476.44 566.43 475.99Z" />
				<path id="&lt;Path&gt;" class="shp10" d="M581.49 484.68L571.73 479.05C570.95 478.6 571.05 477.81 571.95 477.29L581.62 471.71C582.52 471.19 583.89 471.13 584.67 471.58L594.42 477.21C595.21 477.66 595.11 478.45 594.2 478.98L584.54 484.55C583.64 485.08 582.27 485.13 581.49 484.68Z" />
				<path id="&lt;Path&gt;" class="shp10" d="M596.55 493.38L586.79 487.75C586.01 487.29 586.11 486.5 587.01 485.98L596.68 480.4C597.58 479.88 598.95 479.82 599.73 480.28L609.48 485.91C610.27 486.36 610.17 487.15 609.26 487.67L599.6 493.25C598.7 493.77 597.33 493.83 596.55 493.38Z" />
				<path id="&lt;Path&gt;" class="shp10" d="M611.61 502.07L601.85 496.44C601.07 495.99 601.17 495.2 602.07 494.68L611.74 489.1C612.64 488.58 614.01 488.52 614.79 488.97L624.54 494.6C625.33 495.05 625.23 495.84 624.32 496.37L614.66 501.94C613.76 502.47 612.39 502.52 611.61 502.07Z" />
				<path id="&lt;Path&gt;" class="shp10" d="M626.67 510.77L616.91 505.14C616.13 504.68 616.23 503.89 617.13 503.37L626.8 497.79C627.7 497.27 629.07 497.21 629.85 497.67L639.6 503.3C640.39 503.75 640.29 504.54 639.38 505.06L629.72 510.64C628.82 511.16 627.45 511.22 626.67 510.77Z" />
				<path id="&lt;Path&gt;" class="shp10" d="M641.73 519.46L631.98 513.83C631.19 513.38 631.29 512.59 632.19 512.07L641.86 506.49C642.76 505.97 644.13 505.91 644.91 506.36L654.66 511.99C655.45 512.44 655.35 513.23 654.45 513.76L644.78 519.33C643.88 519.86 642.51 519.91 641.73 519.46Z" />
				<path id="&lt;Path&gt;" class="shp10" d="M656.79 528.16L647.04 522.53C646.25 522.07 646.35 521.28 647.26 520.76L656.92 515.18C657.82 514.66 659.19 514.6 659.97 515.06L669.73 520.69C670.51 521.14 670.41 521.93 669.51 522.45L659.84 528.03C658.94 528.55 657.57 528.61 656.79 528.16Z" />
				<path id="&lt;Path&gt;" class="shp10" d="M671.85 536.85L662.1 531.22C661.31 530.77 661.41 529.98 662.32 529.46L671.98 523.88C672.88 523.36 674.25 523.3 675.03 523.75L684.79 529.38C685.57 529.83 685.47 530.62 684.57 531.15L674.9 536.73C674 537.25 672.63 537.3 671.85 536.85Z" />
				<path id="&lt;Path&gt;" class="shp10" d="M698.62 552.31L677.34 540.02C676.56 539.57 676.66 538.78 677.56 538.26L687.23 532.68C688.13 532.16 689.5 532.1 690.28 532.56L711.56 544.84C712.34 545.29 712.25 546.08 711.34 546.6L701.68 552.18C700.77 552.71 699.41 552.76 698.62 552.31Z" />
				<path id="&lt;Path&gt;" class="shp10" d="M727.94 535.38L709.98 525.01C709.2 524.56 709.3 523.77 710.2 523.25L719.87 517.67C720.77 517.15 722.14 517.09 722.92 517.54L740.88 527.91C741.66 528.36 741.57 529.15 740.66 529.68L731 535.26C730.09 535.78 728.73 535.83 727.94 535.38Z" />
				<path id="&lt;Path&gt;" class="shp10" d="M577.74 465.59L567.99 459.96C567.2 459.51 567.3 458.72 568.21 458.19L577.87 452.62C578.77 452.09 580.14 452.04 580.92 452.49L590.68 458.12C591.46 458.57 591.36 459.36 590.46 459.88L580.79 465.46C579.89 465.98 578.52 466.04 577.74 465.59Z" />
				<path id="&lt;Path&gt;" class="shp10" d="M562.3 456.68L552.55 451.05C551.77 450.59 551.87 449.81 552.77 449.28L562.43 443.7C563.34 443.18 564.71 443.13 565.49 443.58L575.24 449.21C576.02 449.66 575.93 450.45 575.02 450.97L565.36 456.55C564.45 457.07 563.09 457.13 562.3 456.68Z" />
				<path id="&lt;Path&gt;" class="shp10" d="M546.87 447.77L537.12 442.14C536.33 441.68 536.43 440.89 537.34 440.37L547 434.79C547.9 434.27 549.27 434.21 550.05 434.67L559.81 440.3C560.59 440.75 560.49 441.54 559.59 442.06L549.92 447.64C549.02 448.16 547.65 448.22 546.87 447.77Z" />
				<path id="&lt;Path&gt;" class="shp10" d="M531.43 438.85L521.68 433.22C520.9 432.77 521 431.98 521.9 431.46L531.56 425.88C532.47 425.36 533.84 425.3 534.62 425.75L544.37 431.39C545.15 431.84 545.06 432.63 544.15 433.15L534.49 438.73C533.58 439.25 532.22 439.31 531.43 438.85Z" />
				<path id="&lt;Path&gt;" class="shp10" d="M592.8 474.28L583.05 468.65C582.26 468.2 582.36 467.41 583.27 466.89L592.93 461.31C593.83 460.79 595.2 460.73 595.98 461.18L605.74 466.82C606.52 467.27 606.42 468.06 605.52 468.58L595.85 474.16C594.95 474.68 593.58 474.74 592.8 474.28Z" />
				<path id="&lt;Path&gt;" class="shp10" d="M607.86 482.98L598.11 477.35C597.32 476.9 597.42 476.11 598.33 475.59L607.99 470.01C608.89 469.48 610.26 469.43 611.04 469.88L620.8 475.51C621.58 475.96 621.48 476.75 620.58 477.27L610.91 482.85C610.01 483.38 608.64 483.43 607.86 482.98Z" />
				<path id="&lt;Path&gt;" class="shp10" d="M622.92 491.67L613.17 486.04C612.38 485.59 612.48 484.8 613.39 484.28L623.05 478.7C623.95 478.18 625.32 478.12 626.11 478.58L635.86 484.21C636.64 484.66 636.54 485.45 635.64 485.97L625.98 491.55C625.07 492.07 623.7 492.13 622.92 491.67Z" />
				<path id="&lt;Path&gt;" class="shp10" d="M637.98 500.37L628.23 494.74C627.45 494.29 627.54 493.5 628.45 492.98L638.11 487.4C639.01 486.87 640.38 486.82 641.17 487.27L650.92 492.9C651.7 493.35 651.6 494.14 650.7 494.66L641.04 500.24C640.13 500.77 638.76 500.82 637.98 500.37Z" />
				<path id="&lt;Path&gt;" class="shp10" d="M653.04 509.07L643.29 503.43C642.51 502.98 642.6 502.19 643.51 501.67L653.17 496.09C654.08 495.57 655.44 495.51 656.23 495.97L665.98 501.6C666.76 502.05 666.66 502.84 665.76 503.36L656.1 508.94C655.19 509.46 653.82 509.52 653.04 509.07Z" />
				<path id="&lt;Path&gt;" class="shp10" d="M668.1 517.76L658.35 512.13C657.57 511.68 657.66 510.89 658.57 510.37L668.23 504.79C669.14 504.27 670.5 504.21 671.29 504.66L681.04 510.29C681.82 510.74 681.72 511.53 680.82 512.05L671.16 517.63C670.25 518.16 668.88 518.21 668.1 517.76Z" />
				<path id="&lt;Path&gt;" class="shp10" d="M683.16 526.46L673.41 520.83C672.63 520.37 672.73 519.58 673.63 519.06L683.29 513.48C684.2 512.96 685.56 512.9 686.35 513.36L696.1 518.99C696.88 519.44 696.78 520.23 695.88 520.75L686.22 526.33C685.31 526.85 683.95 526.91 683.16 526.46Z" />
				<path id="&lt;Path&gt;" class="shp10" d="M698.22 535.15L688.47 529.52C687.69 529.07 687.79 528.28 688.69 527.76L698.35 522.18C699.26 521.66 700.62 521.6 701.41 522.05L711.16 527.68C711.94 528.13 711.85 528.92 710.94 529.45L701.28 535.02C700.37 535.55 699.01 535.6 698.22 535.15Z" />
				<path id="&lt;Path&gt;" class="shp10" d="M713.28 543.85L703.53 538.22C702.75 537.76 702.85 536.97 703.75 536.45L713.41 530.87C714.32 530.35 715.69 530.29 716.47 530.75L726.22 536.38C727 536.83 726.91 537.62 726 538.14L716.34 543.72C715.43 544.24 714.07 544.3 713.28 543.85Z" />
				<path id="&lt;Path&gt;" class="shp10" d="M569.81 444.08L560.06 438.45C559.27 438 559.37 437.21 560.28 436.69L569.94 431.11C570.84 430.59 572.21 430.53 572.99 430.98L582.75 436.61C583.53 437.07 583.43 437.85 582.53 438.38L572.86 443.96C571.96 444.48 570.59 444.53 569.81 444.08Z" />
				<path id="&lt;Path&gt;" class="shp10" d="M554.82 435.43L545.07 429.8C544.29 429.35 544.39 428.56 545.29 428.04L554.95 422.46C555.86 421.93 557.22 421.88 558.01 422.33L567.76 427.96C568.54 428.41 568.44 429.2 567.54 429.72L557.88 435.3C556.97 435.83 555.61 435.88 554.82 435.43Z" />
				<path id="&lt;Path&gt;" class="shp10" d="M539.84 426.78L530.08 421.15C529.3 420.7 529.4 419.91 530.3 419.38L539.97 413.81C540.87 413.28 542.24 413.23 543.02 413.68L552.77 419.31C553.56 419.76 553.46 420.55 552.56 421.07L542.89 426.65C541.99 427.17 540.62 427.23 539.84 426.78Z" />
				<path id="&lt;Path&gt;" class="shp10" d="M524.85 418.13L515.1 412.5C514.32 412.04 514.41 411.25 515.32 410.73L524.98 405.15C525.89 404.63 527.25 404.57 528.04 405.03L537.79 410.66C538.57 411.11 538.47 411.9 537.57 412.42L527.91 418C527 418.52 525.63 418.58 524.85 418.13Z" />
				<path id="&lt;Path&gt;" class="shp10" d="M540.26 409.23L530.51 403.6C529.73 403.15 529.82 402.36 530.73 401.84L533.92 399.99C534.83 399.47 536.19 399.41 536.98 399.86L546.73 405.49C547.51 405.95 547.41 406.74 546.51 407.26L543.32 409.1C542.41 409.62 541.04 409.68 540.26 409.23Z" />
				<path id="&lt;Path&gt;" class="shp10" d="M559.82 420.52L550.07 414.89C549.28 414.44 549.38 413.65 550.28 413.13L553.48 411.28C554.38 410.76 555.75 410.7 556.53 411.16L566.29 416.79C567.07 417.24 566.97 418.03 566.07 418.55L562.87 420.39C561.97 420.92 560.6 420.97 559.82 420.52Z" />
				<path id="&lt;Path&gt;" class="shp10" d="M574.74 429.14L564.99 423.51C564.21 423.05 564.3 422.26 565.21 421.74L568.4 419.9C569.31 419.38 570.67 419.32 571.46 419.77L581.21 425.4C581.99 425.85 581.89 426.64 580.99 427.17L577.8 429.01C576.89 429.53 575.52 429.59 574.74 429.14Z" />
				<path id="&lt;Path&gt;" class="shp10" d="M589.66 437.75L579.91 432.12C579.13 431.67 579.23 430.88 580.13 430.36L583.33 428.51C584.23 427.99 585.6 427.93 586.38 428.39L596.13 434.02C596.92 434.47 596.82 435.26 595.91 435.78L592.72 437.63C591.81 438.15 590.45 438.2 589.66 437.75Z" />
				<path id="&lt;Path&gt;" class="shp10" d="M604.59 446.37L594.83 440.74C594.05 440.29 594.15 439.5 595.05 438.97L598.25 437.13C599.15 436.61 600.52 436.55 601.3 437L611.06 442.63C611.84 443.09 611.74 443.88 610.84 444.4L607.64 446.24C606.74 446.76 605.37 446.82 604.59 446.37Z" />
				<path id="&lt;Path&gt;" class="shp10" d="M687.9 494.47L678.15 488.84C677.37 488.39 677.46 487.6 678.37 487.07L681.56 485.23C682.47 484.71 683.83 484.65 684.62 485.1L694.37 490.73C695.15 491.19 695.05 491.98 694.15 492.5L690.96 494.34C690.05 494.86 688.68 494.92 687.9 494.47Z" />
				<path id="&lt;Path&gt;" class="shp10" d="M702.82 503.08L693.07 497.45C692.29 497 692.39 496.21 693.29 495.69L696.49 493.85C697.39 493.32 698.76 493.27 699.54 493.72L709.29 499.35C710.08 499.8 709.98 500.59 709.07 501.11L705.88 502.96C704.97 503.48 703.61 503.54 702.82 503.08Z" />
				<path id="&lt;Path&gt;" class="shp10" d="M717.75 511.7L707.99 506.07C707.21 505.62 707.31 504.83 708.21 504.31L711.41 502.46C712.31 501.94 713.68 501.88 714.46 502.34L724.22 507.97C725 508.42 724.9 509.21 724 509.73L720.8 511.57C719.9 512.1 718.53 512.15 717.75 511.7Z" />
				<path id="&lt;Path&gt;" class="shp10" d="M732.67 520.32L722.92 514.69C722.13 514.23 722.23 513.44 723.14 512.92L726.33 511.08C727.24 510.56 728.6 510.5 729.39 510.95L739.14 516.58C739.92 517.03 739.82 517.82 738.92 518.35L735.73 520.19C734.82 520.71 733.45 520.77 732.67 520.32Z" />
				<path id="&lt;Path&gt;" class="shp10" d="M584.87 452.78L575.12 447.15C574.33 446.69 574.43 445.91 575.34 445.38L585 439.8C585.9 439.28 587.27 439.23 588.05 439.68L597.81 445.31C598.59 445.76 598.49 446.55 597.59 447.07L587.92 452.65C587.02 453.17 585.65 453.23 584.87 452.78Z" />
				<path id="&lt;Path&gt;" class="shp10" d="M599.93 461.47L590.18 455.84C589.39 455.39 589.49 454.6 590.4 454.08L600.06 448.5C600.96 447.98 602.33 447.92 603.11 448.37L612.87 454C613.65 454.46 613.55 455.25 612.65 455.77L602.98 461.35C602.08 461.87 600.71 461.92 599.93 461.47Z" />
				<path id="&lt;Path&gt;" class="shp10" d="M614.99 470.17L605.24 464.54C604.45 464.09 604.55 463.3 605.46 462.77L615.12 457.19C616.02 456.67 617.39 456.62 618.17 457.07L627.93 462.7C628.71 463.15 628.61 463.94 627.71 464.46L618.04 470.04C617.14 470.56 615.77 470.62 614.99 470.17Z" />
				<path id="&lt;Path&gt;" class="shp10" d="M630.05 478.86L620.3 473.23C619.52 472.78 619.61 471.99 620.52 471.47L630.18 465.89C631.08 465.37 632.45 465.31 633.24 465.76L642.99 471.39C643.77 471.85 643.67 472.64 642.77 473.16L633.11 478.74C632.2 479.26 630.83 479.32 630.05 478.86Z" />
				<path id="&lt;Path&gt;" class="shp10" d="M645.11 487.56L635.36 481.93C634.58 481.48 634.67 480.69 635.58 480.16L645.24 474.58C646.15 474.06 647.51 474.01 648.3 474.46L658.05 480.09C658.83 480.54 658.73 481.33 657.83 481.85L648.17 487.43C647.26 487.95 645.89 488.01 645.11 487.56Z" />
				<path id="&lt;Path&gt;" class="shp10" d="M660.17 496.25L650.42 490.62C649.64 490.17 649.73 489.38 650.64 488.86L660.3 483.28C661.21 482.76 662.57 482.7 663.36 483.15L673.11 488.78C673.89 489.24 673.79 490.03 672.89 490.55L663.23 496.13C662.32 496.65 660.95 496.71 660.17 496.25Z" />
				<path id="&lt;Path&gt;" class="shp10" d="M675.23 504.95L665.48 499.32C664.7 498.87 664.8 498.08 665.7 497.55L675.36 491.98C676.27 491.45 677.63 491.4 678.42 491.85L688.17 497.48C688.95 497.93 688.85 498.72 687.95 499.24L678.29 504.82C677.38 505.34 676.02 505.4 675.23 504.95Z" />
				<path id="&lt;Path&gt;" class="shp10" d="M690.29 513.64L680.54 508.01C679.76 507.56 679.86 506.77 680.76 506.25L690.42 500.67C691.33 500.15 692.69 500.09 693.48 500.54L703.23 506.17C704.01 506.63 703.91 507.42 703.01 507.94L693.35 513.52C692.44 514.04 691.08 514.1 690.29 513.64Z" />
				<path id="&lt;Path&gt;" class="shp10" d="M705.35 522.34L695.6 516.71C694.82 516.26 694.92 515.47 695.82 514.94L705.48 509.37C706.39 508.84 707.75 508.79 708.54 509.24L718.29 514.87C719.07 515.32 718.98 516.11 718.07 516.63L708.41 522.21C707.5 522.73 706.14 522.79 705.35 522.34Z" />
				<path id="&lt;Path&gt;" class="shp10" d="M498.77 453.85L470.04 437.27C469.26 436.82 469.36 436.03 470.26 435.5L479.93 429.93C480.83 429.4 482.2 429.35 482.98 429.8L511.7 446.38C512.49 446.83 512.39 447.62 511.48 448.15L501.82 453.72C500.92 454.25 499.55 454.3 498.77 453.85Z" />
				<path id="&lt;Path&gt;" class="shp10" d="M683.79 560.67L655.07 544.09C654.28 543.64 654.38 542.85 655.29 542.33L664.95 536.75C665.85 536.23 667.22 536.17 668 536.62L696.72 553.2C697.51 553.66 697.41 554.45 696.51 554.97L686.84 560.55C685.94 561.07 684.57 561.13 683.79 560.67Z" />
				<path id="&lt;Path&gt;" class="shp10" d="M623.56 545.11L613.81 539.48C613.02 539.02 613.12 538.23 614.03 537.71L625.54 531.07C626.44 530.54 627.81 530.49 628.59 530.94L638.34 536.57C639.13 537.02 639.03 537.81 638.12 538.33L626.61 544.98C625.71 545.5 624.34 545.56 623.56 545.11Z" />
				<path id="&lt;Path&gt;" class="shp10" d="M514.19 481.96L498.59 472.96C497.81 472.51 497.91 471.72 498.81 471.19L510.32 464.55C511.23 464.03 512.59 463.97 513.38 464.42L528.97 473.43C529.76 473.88 529.66 474.67 528.75 475.19L517.24 481.84C516.34 482.36 514.97 482.41 514.19 481.96Z" />
				<path id="&lt;Path&gt;" class="shp10" d="M609.05 536.73L593.45 527.72C592.67 527.27 592.77 526.48 593.67 525.96L605.18 519.31C606.09 518.79 607.45 518.74 608.24 519.19L623.83 528.19C624.62 528.64 624.52 529.43 623.61 529.96L612.1 536.6C611.2 537.12 609.83 537.18 609.05 536.73Z" />
				<path id="&lt;Path&gt;" class="shp10" d="M535.92 494.51L520.32 485.5C519.54 485.05 519.64 484.26 520.54 483.74L532.05 477.09C532.96 476.57 534.32 476.51 535.11 476.97L550.7 485.97C551.49 486.42 551.39 487.21 550.48 487.74L538.97 494.38C538.07 494.9 536.7 494.96 535.92 494.51Z" />
				<path id="&lt;Path&gt;" class="shp10" d="M535.21 477.03L603.02 516.18C603.86 516.66 603.86 517.45 603.02 517.94L591.28 524.71C590.44 525.2 589.08 525.2 588.24 524.71L520.43 485.56L535.21 477.03Z" />
				<path id="&lt;Path&gt;" class="shp10" d="M665.65 560.87L676.51 567.14C677.16 567.51 677.07 568.16 676.33 568.59L671.62 571.31C670.88 571.74 669.76 571.78 669.12 571.41L658.26 565.14C657.62 564.77 657.7 564.12 658.44 563.69L663.15 560.98C663.89 560.55 665.01 560.5 665.65 560.87Z" />
				<path id="&lt;Path&gt;" class="shp10" d="M650.46 552.1L661.33 558.38C661.97 558.75 661.89 559.39 661.15 559.82L656.44 562.54C655.7 562.97 654.58 563.02 653.94 562.65L643.07 556.37C642.43 556 642.51 555.36 643.25 554.93L647.96 552.21C648.7 551.78 649.82 551.73 650.46 552.1Z" />
				<path id="&lt;Path&gt;" class="shp10" d="M635.4 543.41L646.27 549.68C646.91 550.05 646.83 550.7 646.09 551.13L641.38 553.85C640.64 554.27 639.52 554.32 638.87 553.95L628.01 547.68C627.37 547.31 627.45 546.66 628.19 546.23L632.9 543.51C633.64 543.09 634.76 543.04 635.4 543.41Z" />
				<path id="&lt;Path&gt;" class="shp10" d="M658.78 547.3L669.64 553.58C670.29 553.95 670.21 554.59 669.47 555.02L664.76 557.74C664.01 558.17 662.89 558.21 662.25 557.84L651.39 551.57C650.75 551.2 650.83 550.55 651.57 550.13L656.28 547.41C657.02 546.98 658.14 546.93 658.78 547.3Z" />
			</g>
			<g id="&lt;Group&gt;" style="opacity: 0.4">
				<path id="&lt;Path&gt;" class="shp10" d="M463.16 452.5L453.41 446.87C452.63 446.42 452.73 445.63 453.63 445.11L465.14 438.46C466.04 437.94 467.41 437.88 468.2 438.34L477.95 443.97C478.73 444.42 478.63 445.21 477.73 445.73L466.22 452.38C465.31 452.9 463.95 452.95 463.16 452.5Z" />
				<path id="&lt;Path&gt;" class="shp10" d="M478.22 461.2L468.47 455.57C467.69 455.11 467.79 454.33 468.69 453.8L480.2 447.16C481.11 446.64 482.47 446.58 483.26 447.03L493.01 452.66C493.79 453.11 493.69 453.9 492.79 454.42L481.28 461.07C480.37 461.59 479.01 461.65 478.22 461.2Z" />
				<path id="&lt;Path&gt;" class="shp10" d="M493.28 469.89L483.53 464.26C482.75 463.81 482.85 463.02 483.75 462.5L495.26 455.85C496.17 455.33 497.53 455.27 498.32 455.73L508.07 461.36C508.85 461.81 508.75 462.6 507.85 463.12L496.34 469.77C495.43 470.29 494.07 470.34 493.28 469.89Z" />
				<path id="&lt;Path&gt;" class="shp10" d="M514.11 462.71L504.36 457.08C503.58 456.63 503.68 455.84 504.58 455.32L514.24 449.74C515.15 449.22 516.51 449.16 517.3 449.61L527.05 455.24C527.83 455.69 527.74 456.48 526.83 457.01L517.17 462.59C516.26 463.11 514.9 463.16 514.11 462.71Z" />
				<path id="&lt;Path&gt;" class="shp10" d="M529.17 471.41L519.42 465.78C518.64 465.32 518.74 464.53 519.64 464.01L529.3 458.43C530.21 457.91 531.58 457.86 532.36 458.31L542.11 463.94C542.89 464.39 542.8 465.18 541.89 465.7L532.23 471.28C531.32 471.8 529.96 471.86 529.17 471.41Z" />
				<path id="&lt;Path&gt;" class="shp10" d="M544.23 480.1L534.48 474.47C533.7 474.02 533.8 473.23 534.7 472.71L544.36 467.13C545.27 466.61 546.64 466.55 547.42 467L557.17 472.63C557.95 473.08 557.86 473.87 556.95 474.4L547.29 479.98C546.38 480.5 545.02 480.55 544.23 480.1Z" />
				<path id="&lt;Path&gt;" class="shp10" d="M559.29 488.8L549.54 483.17C548.76 482.72 548.86 481.93 549.76 481.4L559.42 475.82C560.33 475.3 561.7 475.25 562.48 475.7L572.23 481.33C573.01 481.78 572.92 482.57 572.01 483.09L562.35 488.67C561.45 489.19 560.08 489.25 559.29 488.8Z" />
				<path id="&lt;Path&gt;" class="shp10" d="M574.36 497.49L564.6 491.86C563.82 491.41 563.92 490.62 564.82 490.1L574.49 484.52C575.39 484 576.76 483.94 577.54 484.39L587.29 490.02C588.08 490.48 587.98 491.27 587.07 491.79L577.41 497.37C576.51 497.89 575.14 497.94 574.36 497.49Z" />
				<path id="&lt;Path&gt;" class="shp10" d="M589.42 506.19L579.66 500.56C578.88 500.11 578.98 499.32 579.88 498.79L589.55 493.21C590.45 492.69 591.82 492.64 592.6 493.09L602.35 498.72C603.14 499.17 603.04 499.96 602.13 500.48L592.47 506.06C591.57 506.58 590.2 506.64 589.42 506.19Z" />
				<path id="&lt;Path&gt;" class="shp10" d="M604.48 514.88L594.72 509.25C593.94 508.8 594.04 508.01 594.94 507.49L604.61 501.91C605.51 501.39 606.88 501.33 607.66 501.78L617.41 507.41C618.2 507.87 618.1 508.66 617.19 509.18L607.53 514.76C606.63 515.28 605.26 515.34 604.48 514.88Z" />
				<path id="&lt;Path&gt;" class="shp10" d="M619.54 523.58L609.78 517.95C609 517.5 609.1 516.71 610 516.18L619.67 510.61C620.57 510.08 621.94 510.03 622.72 510.48L632.47 516.11C633.26 516.56 633.16 517.35 632.25 517.87L622.59 523.45C621.69 523.97 620.32 524.03 619.54 523.58Z" />
				<path id="&lt;Path&gt;" class="shp10" d="M634.6 532.27L624.85 526.64C624.06 526.19 624.16 525.4 625.06 524.88L634.73 519.3C635.63 518.78 637 518.72 637.78 519.17L647.53 524.8C648.32 525.26 648.22 526.05 647.32 526.57L637.65 532.15C636.75 532.67 635.38 532.73 634.6 532.27Z" />
				<path id="&lt;Path&gt;" class="shp10" d="M649.66 540.97L639.91 535.34C639.12 534.89 639.22 534.1 640.13 533.57L649.79 528C650.69 527.47 652.06 527.42 652.84 527.87L662.6 533.5C663.38 533.95 663.28 534.74 662.38 535.26L652.71 540.84C651.81 541.36 650.44 541.42 649.66 540.97Z" />
				<path id="&lt;Path&gt;" class="shp10" d="M536.3 458.6L526.55 452.96C525.77 452.51 525.87 451.72 526.77 451.2L536.43 445.62C537.34 445.1 538.71 445.04 539.49 445.5L549.24 451.13C550.02 451.58 549.93 452.37 549.02 452.89L539.36 458.47C538.45 458.99 537.09 459.05 536.3 458.6Z" />
				<path id="&lt;Path&gt;" class="shp10" d="M521.02 449.77L511.27 444.14C510.48 443.69 510.58 442.9 511.49 442.38L521.15 436.8C522.05 436.27 523.42 436.22 524.2 436.67L533.96 442.3C534.74 442.75 534.64 443.54 533.74 444.06L524.07 449.64C523.17 450.17 521.8 450.22 521.02 449.77Z" />
				<path id="&lt;Path&gt;" class="shp10" d="M505.71 440.93L484.7 428.8C483.92 428.35 484.02 427.56 484.92 427.04L494.59 421.46C495.49 420.94 496.86 420.88 497.64 421.33L518.65 433.46C519.43 433.91 519.33 434.7 518.43 435.23L508.76 440.8C507.86 441.33 506.49 441.38 505.71 440.93Z" />
				<path id="&lt;Path&gt;" class="shp10" d="M516.41 430.18L499.36 420.34C498.58 419.89 498.68 419.1 499.58 418.58L509.25 413C510.15 412.48 511.52 412.42 512.3 412.87L529.35 422.71C530.13 423.16 530.03 423.95 529.13 424.48L519.47 430.05C518.56 430.58 517.19 430.63 516.41 430.18Z" />
				<path id="&lt;Path&gt;" class="shp10" d="M551.36 467.29L541.61 461.66C540.83 461.21 540.93 460.42 541.83 459.9L551.49 454.32C552.4 453.8 553.77 453.74 554.55 454.19L564.3 459.82C565.08 460.27 564.99 461.06 564.08 461.58L554.42 467.16C553.52 467.69 552.15 467.74 551.36 467.29Z" />
				<path id="&lt;Path&gt;" class="shp10" d="M566.43 475.99L556.67 470.36C555.89 469.9 555.99 469.11 556.89 468.59L566.55 463.01C567.46 462.49 568.83 462.43 569.61 462.89L579.36 468.52C580.15 468.97 580.05 469.76 579.14 470.28L569.48 475.86C568.58 476.38 567.21 476.44 566.43 475.99Z" />
				<path id="&lt;Path&gt;" class="shp10" d="M581.49 484.68L571.73 479.05C570.95 478.6 571.05 477.81 571.95 477.29L581.62 471.71C582.52 471.19 583.89 471.13 584.67 471.58L594.42 477.21C595.21 477.66 595.11 478.45 594.2 478.98L584.54 484.55C583.64 485.08 582.27 485.13 581.49 484.68Z" />
				<path id="&lt;Path&gt;" class="shp10" d="M596.55 493.38L586.79 487.75C586.01 487.29 586.11 486.5 587.01 485.98L596.68 480.4C597.58 479.88 598.95 479.82 599.73 480.28L609.48 485.91C610.27 486.36 610.17 487.15 609.26 487.67L599.6 493.25C598.7 493.77 597.33 493.83 596.55 493.38Z" />
				<path id="&lt;Path&gt;" class="shp10" d="M611.61 502.07L601.85 496.44C601.07 495.99 601.17 495.2 602.07 494.68L611.74 489.1C612.64 488.58 614.01 488.52 614.79 488.97L624.54 494.6C625.33 495.05 625.23 495.84 624.32 496.37L614.66 501.94C613.76 502.47 612.39 502.52 611.61 502.07Z" />
				<path id="&lt;Path&gt;" class="shp10" d="M626.67 510.77L616.91 505.14C616.13 504.68 616.23 503.89 617.13 503.37L626.8 497.79C627.7 497.27 629.07 497.21 629.85 497.67L639.6 503.3C640.39 503.75 640.29 504.54 639.38 505.06L629.72 510.64C628.82 511.16 627.45 511.22 626.67 510.77Z" />
				<path id="&lt;Path&gt;" class="shp10" d="M641.73 519.46L631.98 513.83C631.19 513.38 631.29 512.59 632.19 512.07L641.86 506.49C642.76 505.97 644.13 505.91 644.91 506.36L654.66 511.99C655.45 512.44 655.35 513.23 654.45 513.76L644.78 519.33C643.88 519.86 642.51 519.91 641.73 519.46Z" />
				<path id="&lt;Path&gt;" class="shp10" d="M656.79 528.16L647.04 522.53C646.25 522.07 646.35 521.28 647.26 520.76L656.92 515.18C657.82 514.66 659.19 514.6 659.97 515.06L669.73 520.69C670.51 521.14 670.41 521.93 669.51 522.45L659.84 528.03C658.94 528.55 657.57 528.61 656.79 528.16Z" />
				<path id="&lt;Path&gt;" class="shp10" d="M671.85 536.85L662.1 531.22C661.31 530.77 661.41 529.98 662.32 529.46L671.98 523.88C672.88 523.36 674.25 523.3 675.03 523.75L684.79 529.38C685.57 529.83 685.47 530.62 684.57 531.15L674.9 536.73C674 537.25 672.63 537.3 671.85 536.85Z" />
				<path id="&lt;Path&gt;" class="shp10" d="M698.62 552.31L677.34 540.02C676.56 539.57 676.66 538.78 677.56 538.26L687.23 532.68C688.13 532.16 689.5 532.1 690.28 532.56L711.56 544.84C712.34 545.29 712.25 546.08 711.34 546.6L701.68 552.18C700.77 552.71 699.41 552.76 698.62 552.31Z" />
				<path id="&lt;Path&gt;" class="shp10" d="M727.94 535.38L709.98 525.01C709.2 524.56 709.3 523.77 710.2 523.25L719.87 517.67C720.77 517.15 722.14 517.09 722.92 517.54L740.88 527.91C741.66 528.36 741.57 529.15 740.66 529.68L731 535.26C730.09 535.78 728.73 535.83 727.94 535.38Z" />
				<path id="&lt;Path&gt;" class="shp10" d="M577.74 465.59L567.99 459.96C567.2 459.51 567.3 458.72 568.21 458.19L577.87 452.62C578.77 452.09 580.14 452.04 580.92 452.49L590.68 458.12C591.46 458.57 591.36 459.36 590.46 459.88L580.79 465.46C579.89 465.98 578.52 466.04 577.74 465.59Z" />
				<path id="&lt;Path&gt;" class="shp10" d="M562.3 456.68L552.55 451.05C551.77 450.59 551.87 449.81 552.77 449.28L562.43 443.7C563.34 443.18 564.71 443.13 565.49 443.58L575.24 449.21C576.02 449.66 575.93 450.45 575.02 450.97L565.36 456.55C564.45 457.07 563.09 457.13 562.3 456.68Z" />
				<path id="&lt;Path&gt;" class="shp10" d="M546.87 447.77L537.12 442.14C536.33 441.68 536.43 440.89 537.34 440.37L547 434.79C547.9 434.27 549.27 434.21 550.05 434.67L559.81 440.3C560.59 440.75 560.49 441.54 559.59 442.06L549.92 447.64C549.02 448.16 547.65 448.22 546.87 447.77Z" />
				<path id="&lt;Path&gt;" class="shp10" d="M531.43 438.85L521.68 433.22C520.9 432.77 521 431.98 521.9 431.46L531.56 425.88C532.47 425.36 533.84 425.3 534.62 425.75L544.37 431.39C545.15 431.84 545.06 432.63 544.15 433.15L534.49 438.73C533.58 439.25 532.22 439.31 531.43 438.85Z" />
				<path id="&lt;Path&gt;" class="shp10" d="M592.8 474.28L583.05 468.65C582.26 468.2 582.36 467.41 583.27 466.89L592.93 461.31C593.83 460.79 595.2 460.73 595.98 461.18L605.74 466.82C606.52 467.27 606.42 468.06 605.52 468.58L595.85 474.16C594.95 474.68 593.58 474.74 592.8 474.28Z" />
				<path id="&lt;Path&gt;" class="shp10" d="M607.86 482.98L598.11 477.35C597.32 476.9 597.42 476.11 598.33 475.59L607.99 470.01C608.89 469.48 610.26 469.43 611.04 469.88L620.8 475.51C621.58 475.96 621.48 476.75 620.58 477.27L610.91 482.85C610.01 483.38 608.64 483.43 607.86 482.98Z" />
				<path id="&lt;Path&gt;" class="shp10" d="M622.92 491.67L613.17 486.04C612.38 485.59 612.48 484.8 613.39 484.28L623.05 478.7C623.95 478.18 625.32 478.12 626.11 478.58L635.86 484.21C636.64 484.66 636.54 485.45 635.64 485.97L625.98 491.55C625.07 492.07 623.7 492.13 622.92 491.67Z" />
				<path id="&lt;Path&gt;" class="shp10" d="M637.98 500.37L628.23 494.74C627.45 494.29 627.54 493.5 628.45 492.98L638.11 487.4C639.01 486.87 640.38 486.82 641.17 487.27L650.92 492.9C651.7 493.35 651.6 494.14 650.7 494.66L641.04 500.24C640.13 500.77 638.76 500.82 637.98 500.37Z" />
				<path id="&lt;Path&gt;" class="shp10" d="M653.04 509.07L643.29 503.43C642.51 502.98 642.6 502.19 643.51 501.67L653.17 496.09C654.08 495.57 655.44 495.51 656.23 495.97L665.98 501.6C666.76 502.05 666.66 502.84 665.76 503.36L656.1 508.94C655.19 509.46 653.82 509.52 653.04 509.07Z" />
				<path id="&lt;Path&gt;" class="shp10" d="M668.1 517.76L658.35 512.13C657.57 511.68 657.66 510.89 658.57 510.37L668.23 504.79C669.14 504.27 670.5 504.21 671.29 504.66L681.04 510.29C681.82 510.74 681.72 511.53 680.82 512.05L671.16 517.63C670.25 518.16 668.88 518.21 668.1 517.76Z" />
				<path id="&lt;Path&gt;" class="shp10" d="M683.16 526.46L673.41 520.83C672.63 520.37 672.73 519.58 673.63 519.06L683.29 513.48C684.2 512.96 685.56 512.9 686.35 513.36L696.1 518.99C696.88 519.44 696.78 520.23 695.88 520.75L686.22 526.33C685.31 526.85 683.95 526.91 683.16 526.46Z" />
				<path id="&lt;Path&gt;" class="shp10" d="M698.22 535.15L688.47 529.52C687.69 529.07 687.79 528.28 688.69 527.76L698.35 522.18C699.26 521.66 700.62 521.6 701.41 522.05L711.16 527.68C711.94 528.13 711.85 528.92 710.94 529.45L701.28 535.02C700.37 535.55 699.01 535.6 698.22 535.15Z" />
				<path id="&lt;Path&gt;" class="shp10" d="M713.28 543.85L703.53 538.22C702.75 537.76 702.85 536.97 703.75 536.45L713.41 530.87C714.32 530.35 715.69 530.29 716.47 530.75L726.22 536.38C727 536.83 726.91 537.62 726 538.14L716.34 543.72C715.43 544.24 714.07 544.3 713.28 543.85Z" />
				<path id="&lt;Path&gt;" class="shp10" d="M569.81 444.08L560.06 438.45C559.27 438 559.37 437.21 560.28 436.69L569.94 431.11C570.84 430.59 572.21 430.53 572.99 430.98L582.75 436.61C583.53 437.07 583.43 437.85 582.53 438.38L572.86 443.96C571.96 444.48 570.59 444.53 569.81 444.08Z" />
				<path id="&lt;Path&gt;" class="shp10" d="M554.82 435.43L545.07 429.8C544.29 429.35 544.39 428.56 545.29 428.04L554.95 422.46C555.86 421.93 557.22 421.88 558.01 422.33L567.76 427.96C568.54 428.41 568.44 429.2 567.54 429.72L557.88 435.3C556.97 435.83 555.61 435.88 554.82 435.43Z" />
				<path id="&lt;Path&gt;" class="shp10" d="M539.84 426.78L530.08 421.15C529.3 420.7 529.4 419.91 530.3 419.38L539.97 413.81C540.87 413.28 542.24 413.23 543.02 413.68L552.77 419.31C553.56 419.76 553.46 420.55 552.56 421.07L542.89 426.65C541.99 427.17 540.62 427.23 539.84 426.78Z" />
				<path id="&lt;Path&gt;" class="shp10" d="M524.85 418.13L515.1 412.5C514.32 412.04 514.41 411.25 515.32 410.73L524.98 405.15C525.89 404.63 527.25 404.57 528.04 405.03L537.79 410.66C538.57 411.11 538.47 411.9 537.57 412.42L527.91 418C527 418.52 525.63 418.58 524.85 418.13Z" />
				<path id="&lt;Path&gt;" class="shp10" d="M540.26 409.23L530.51 403.6C529.73 403.15 529.82 402.36 530.73 401.84L533.92 399.99C534.83 399.47 536.19 399.41 536.98 399.86L546.73 405.49C547.51 405.95 547.41 406.74 546.51 407.26L543.32 409.1C542.41 409.62 541.04 409.68 540.26 409.23Z" />
				<path id="&lt;Path&gt;" class="shp10" d="M559.82 420.52L550.07 414.89C549.28 414.44 549.38 413.65 550.28 413.13L553.48 411.28C554.38 410.76 555.75 410.7 556.53 411.16L566.29 416.79C567.07 417.24 566.97 418.03 566.07 418.55L562.87 420.39C561.97 420.92 560.6 420.97 559.82 420.52Z" />
				<path id="&lt;Path&gt;" class="shp10" d="M574.74 429.14L564.99 423.51C564.21 423.05 564.3 422.26 565.21 421.74L568.4 419.9C569.31 419.38 570.67 419.32 571.46 419.77L581.21 425.4C581.99 425.85 581.89 426.64 580.99 427.17L577.8 429.01C576.89 429.53 575.52 429.59 574.74 429.14Z" />
				<path id="&lt;Path&gt;" class="shp10" d="M589.66 437.75L579.91 432.12C579.13 431.67 579.23 430.88 580.13 430.36L583.33 428.51C584.23 427.99 585.6 427.93 586.38 428.39L596.13 434.02C596.92 434.47 596.82 435.26 595.91 435.78L592.72 437.63C591.81 438.15 590.45 438.2 589.66 437.75Z" />
				<path id="&lt;Path&gt;" class="shp10" d="M604.59 446.37L594.83 440.74C594.05 440.29 594.15 439.5 595.05 438.97L598.25 437.13C599.15 436.61 600.52 436.55 601.3 437L611.06 442.63C611.84 443.09 611.74 443.88 610.84 444.4L607.64 446.24C606.74 446.76 605.37 446.82 604.59 446.37Z" />
				<path id="&lt;Path&gt;" class="shp10" d="M687.9 494.47L678.15 488.84C677.37 488.39 677.46 487.6 678.37 487.07L681.56 485.23C682.47 484.71 683.83 484.65 684.62 485.1L694.37 490.73C695.15 491.19 695.05 491.98 694.15 492.5L690.96 494.34C690.05 494.86 688.68 494.92 687.9 494.47Z" />
				<path id="&lt;Path&gt;" class="shp10" d="M702.82 503.08L693.07 497.45C692.29 497 692.39 496.21 693.29 495.69L696.49 493.85C697.39 493.32 698.76 493.27 699.54 493.72L709.29 499.35C710.08 499.8 709.98 500.59 709.07 501.11L705.88 502.96C704.97 503.48 703.61 503.54 702.82 503.08Z" />
				<path id="&lt;Path&gt;" class="shp10" d="M717.75 511.7L707.99 506.07C707.21 505.62 707.31 504.83 708.21 504.31L711.41 502.46C712.31 501.94 713.68 501.88 714.46 502.34L724.22 507.97C725 508.42 724.9 509.21 724 509.73L720.8 511.57C719.9 512.1 718.53 512.15 717.75 511.7Z" />
				<path id="&lt;Path&gt;" class="shp10" d="M732.67 520.32L722.92 514.69C722.13 514.23 722.23 513.44 723.14 512.92L726.33 511.08C727.24 510.56 728.6 510.5 729.39 510.95L739.14 516.58C739.92 517.03 739.82 517.82 738.92 518.35L735.73 520.19C734.82 520.71 733.45 520.77 732.67 520.32Z" />
				<path id="&lt;Path&gt;" class="shp10" d="M584.87 452.78L575.12 447.15C574.33 446.69 574.43 445.91 575.34 445.38L585 439.8C585.9 439.28 587.27 439.23 588.05 439.68L597.81 445.31C598.59 445.76 598.49 446.55 597.59 447.07L587.92 452.65C587.02 453.17 585.65 453.23 584.87 452.78Z" />
				<path id="&lt;Path&gt;" class="shp10" d="M599.93 461.47L590.18 455.84C589.39 455.39 589.49 454.6 590.4 454.08L600.06 448.5C600.96 447.98 602.33 447.92 603.11 448.37L612.87 454C613.65 454.46 613.55 455.25 612.65 455.77L602.98 461.35C602.08 461.87 600.71 461.92 599.93 461.47Z" />
				<path id="&lt;Path&gt;" class="shp10" d="M614.99 470.17L605.24 464.54C604.45 464.09 604.55 463.3 605.46 462.77L615.12 457.19C616.02 456.67 617.39 456.62 618.17 457.07L627.93 462.7C628.71 463.15 628.61 463.94 627.71 464.46L618.04 470.04C617.14 470.56 615.77 470.62 614.99 470.17Z" />
				<path id="&lt;Path&gt;" class="shp10" d="M630.05 478.86L620.3 473.23C619.52 472.78 619.61 471.99 620.52 471.47L630.18 465.89C631.08 465.37 632.45 465.31 633.24 465.76L642.99 471.39C643.77 471.85 643.67 472.64 642.77 473.16L633.11 478.74C632.2 479.26 630.83 479.32 630.05 478.86Z" />
				<path id="&lt;Path&gt;" class="shp10" d="M645.11 487.56L635.36 481.93C634.58 481.48 634.67 480.69 635.58 480.16L645.24 474.58C646.15 474.06 647.51 474.01 648.3 474.46L658.05 480.09C658.83 480.54 658.73 481.33 657.83 481.85L648.17 487.43C647.26 487.95 645.89 488.01 645.11 487.56Z" />
				<path id="&lt;Path&gt;" class="shp10" d="M660.17 496.25L650.42 490.62C649.64 490.17 649.73 489.38 650.64 488.86L660.3 483.28C661.21 482.76 662.57 482.7 663.36 483.15L673.11 488.78C673.89 489.24 673.79 490.03 672.89 490.55L663.23 496.13C662.32 496.65 660.95 496.71 660.17 496.25Z" />
				<path id="&lt;Path&gt;" class="shp10" d="M675.23 504.95L665.48 499.32C664.7 498.87 664.8 498.08 665.7 497.55L675.36 491.98C676.27 491.45 677.63 491.4 678.42 491.85L688.17 497.48C688.95 497.93 688.85 498.72 687.95 499.24L678.29 504.82C677.38 505.34 676.02 505.4 675.23 504.95Z" />
				<path id="&lt;Path&gt;" class="shp10" d="M690.29 513.64L680.54 508.01C679.76 507.56 679.86 506.77 680.76 506.25L690.42 500.67C691.33 500.15 692.69 500.09 693.48 500.54L703.23 506.17C704.01 506.63 703.91 507.42 703.01 507.94L693.35 513.52C692.44 514.04 691.08 514.1 690.29 513.64Z" />
				<path id="&lt;Path&gt;" class="shp10" d="M705.35 522.34L695.6 516.71C694.82 516.26 694.92 515.47 695.82 514.94L705.48 509.37C706.39 508.84 707.75 508.79 708.54 509.24L718.29 514.87C719.07 515.32 718.98 516.11 718.07 516.63L708.41 522.21C707.5 522.73 706.14 522.79 705.35 522.34Z" />
				<path id="&lt;Path&gt;" class="shp10" d="M498.77 453.85L470.04 437.27C469.26 436.82 469.36 436.03 470.26 435.5L479.93 429.93C480.83 429.4 482.2 429.35 482.98 429.8L511.7 446.38C512.49 446.83 512.39 447.62 511.48 448.15L501.82 453.72C500.92 454.25 499.55 454.3 498.77 453.85Z" />
				<path id="&lt;Path&gt;" class="shp10" d="M683.79 560.67L655.07 544.09C654.28 543.64 654.38 542.85 655.29 542.33L664.95 536.75C665.85 536.23 667.22 536.17 668 536.62L696.72 553.2C697.51 553.66 697.41 554.45 696.51 554.97L686.84 560.55C685.94 561.07 684.57 561.13 683.79 560.67Z" />
				<path id="&lt;Path&gt;" class="shp10" d="M623.56 545.11L613.81 539.48C613.02 539.02 613.12 538.23 614.03 537.71L625.54 531.07C626.44 530.54 627.81 530.49 628.59 530.94L638.34 536.57C639.13 537.02 639.03 537.81 638.12 538.33L626.61 544.98C625.71 545.5 624.34 545.56 623.56 545.11Z" />
				<path id="&lt;Path&gt;" class="shp10" d="M514.19 481.96L498.59 472.96C497.81 472.51 497.91 471.72 498.81 471.19L510.32 464.55C511.23 464.03 512.59 463.97 513.38 464.42L528.97 473.43C529.76 473.88 529.66 474.67 528.75 475.19L517.24 481.84C516.34 482.36 514.97 482.41 514.19 481.96Z" />
				<path id="&lt;Path&gt;" class="shp10" d="M609.05 536.73L593.45 527.72C592.67 527.27 592.77 526.48 593.67 525.96L605.18 519.31C606.09 518.79 607.45 518.74 608.24 519.19L623.83 528.19C624.62 528.64 624.52 529.43 623.61 529.96L612.1 536.6C611.2 537.12 609.83 537.18 609.05 536.73Z" />
				<path id="&lt;Path&gt;" class="shp10" d="M535.92 494.51L520.32 485.5C519.54 485.05 519.64 484.26 520.54 483.74L532.05 477.09C532.96 476.57 534.32 476.51 535.11 476.97L550.7 485.97C551.49 486.42 551.39 487.21 550.48 487.74L538.97 494.38C538.07 494.9 536.7 494.96 535.92 494.51Z" />
				<path id="&lt;Path&gt;" class="shp10" d="M535.21 477.03L603.02 516.18C603.86 516.66 603.86 517.45 603.02 517.94L591.28 524.71C590.44 525.2 589.08 525.2 588.24 524.71L520.43 485.56L535.21 477.03Z" />
				<path id="&lt;Path&gt;" class="shp10" d="M665.65 560.87L676.51 567.14C677.16 567.51 677.07 568.16 676.33 568.59L671.62 571.31C670.88 571.74 669.76 571.78 669.12 571.41L658.26 565.14C657.62 564.77 657.7 564.12 658.44 563.69L663.15 560.98C663.89 560.55 665.01 560.5 665.65 560.87Z" />
				<path id="&lt;Path&gt;" class="shp10" d="M650.46 552.1L661.33 558.38C661.97 558.75 661.89 559.39 661.15 559.82L656.44 562.54C655.7 562.97 654.58 563.02 653.94 562.65L643.07 556.37C642.43 556 642.51 555.36 643.25 554.93L647.96 552.21C648.7 551.78 649.82 551.73 650.46 552.1Z" />
				<path id="&lt;Path&gt;" class="shp10" d="M635.4 543.41L646.27 549.68C646.91 550.05 646.83 550.7 646.09 551.13L641.38 553.85C640.64 554.27 639.52 554.32 638.87 553.95L628.01 547.68C627.37 547.31 627.45 546.66 628.19 546.23L632.9 543.51C633.64 543.09 634.76 543.04 635.4 543.41Z" />
				<path id="&lt;Path&gt;" class="shp10" d="M658.78 547.3L669.64 553.58C670.29 553.95 670.21 554.59 669.47 555.02L664.76 557.74C664.01 558.17 662.89 558.21 662.25 557.84L651.39 551.57C650.75 551.2 650.83 550.55 651.57 550.13L656.28 547.41C657.02 546.98 658.14 546.93 658.78 547.3Z" />
			</g>
			<path id="&lt;Path&gt;" class="shp11" d="M818.17 529.71L530.45 363.6C525.92 360.98 523.56 354.62 525.17 349.38L590.24 138.12C591.85 132.88 596.83 130.75 601.35 133.36L889.08 299.48C893.6 302.09 895.96 308.45 894.35 313.69L829.28 524.96C827.67 530.2 822.7 532.32 818.17 529.71Z" />
			<path id="&lt;Path&gt;" class="shp12" d="M815.46 522.31L536.38 361.06C532.05 358.56 529.79 352.47 531.34 347.45L593.54 145.49C595.09 140.47 599.85 138.43 604.18 140.93L883.25 302.19C887.58 304.69 889.84 310.78 888.3 315.8L826.09 517.76C824.55 522.78 819.79 524.81 815.46 522.31Z" />
			<path id="&lt;Path&gt;" class="shp13" d="M815.46 522.31L536.38 361.06C532.05 358.56 529.79 352.47 531.34 347.45L593.54 145.49C595.09 140.47 599.85 138.43 604.18 140.93L883.25 302.19C887.58 304.69 889.84 310.78 888.3 315.8L826.09 517.76C824.55 522.78 819.79 524.81 815.46 522.31Z" />
			<path id="&lt;Path&gt;" class="shp13" d="M815.46 522.31L536.38 361.06C532.05 358.56 529.79 352.47 531.34 347.45L593.54 145.49C595.09 140.47 599.85 138.43 604.18 140.93L883.25 302.19C887.58 304.69 889.84 310.78 888.3 315.8L826.09 517.76C824.55 522.78 819.79 524.81 815.46 522.31Z" />
			<path id="&lt;Path&gt;" class="shp14" d="M800.47 460.59L611.55 351.52C608.58 349.81 607.02 345.63 608.08 342.19L650.81 203.47C651.86 200.03 655.13 198.63 658.1 200.35L847.02 309.42C849.99 311.14 851.54 315.32 850.48 318.76L807.76 457.47C806.7 460.91 803.44 462.31 800.47 460.59Z" />
			<g id="&lt;Group&gt;">
				<path id="&lt;Path&gt;" class="shp15" d="M774.94 463.94L586.02 354.87C583.05 353.15 581.5 348.97 582.56 345.53L625.28 206.82C626.34 203.38 629.61 201.98 632.58 203.7L821.5 312.77C824.47 314.48 826.02 318.66 824.96 322.1L782.24 460.82C781.18 464.26 777.91 465.66 774.94 463.94Z" />
			</g>
			<g id="&lt;Group&gt;" style="opacity: 0.502">
				<path id="&lt;Path&gt;" class="shp10" d="M774.94 463.94L586.02 354.87C583.05 353.15 581.5 348.97 582.56 345.53L625.28 206.82C626.34 203.38 629.61 201.98 632.58 203.7L821.5 312.77C824.47 314.48 826.02 318.66 824.96 322.1L782.24 460.82C781.18 464.26 777.91 465.66 774.94 463.94Z" />
			</g>
			<path id="&lt;Path&gt;" class="shp1" d="M824.96 322.1L782.24 460.82C781.5 463.21 779.7 464.58 777.67 464.64C778.55 463.98 779.25 462.98 779.65 461.7L822.37 322.98C823.43 319.54 821.88 315.36 818.91 313.65L629.99 204.58C629.08 204.05 628.15 203.85 627.26 203.88C628.74 202.77 630.71 202.62 632.58 203.7L821.5 312.77C824.47 314.48 826.02 318.66 824.96 322.1Z" />
			<path id="&lt;Compound Path&gt;" fill-rule="evenodd" class="shp13" d="M536.67 577.22C534.07 577.22 531.57 576.68 529.67 575.58L529.67 575.58L453.98 531.88C451.97 530.72 450.87 529.06 450.87 527.22C450.87 525.07 452.39 522.96 455.04 521.43L494 498.93C498.76 496.19 505.75 495.92 509.92 498.32L585.61 542.02C587.61 543.18 588.72 544.83 588.72 546.68C588.72 548.83 587.2 550.94 584.54 552.47L545.58 574.97C543 576.46 539.76 577.22 536.67 577.22ZM502.95 498.89C500.22 498.89 497.31 499.55 495.1 500.83L456.14 523.32C454.18 524.45 453.05 525.87 453.05 527.22C453.05 528.54 454.15 529.45 455.07 529.98L530.76 573.69C534.2 575.66 540.48 575.39 544.49 573.07L583.45 550.58C585.41 549.45 586.53 548.03 586.53 546.68C586.53 545.36 585.43 544.45 584.51 543.91L508.82 500.22C507.29 499.33 505.17 498.89 502.95 498.89Z" />
		</g>
		<g id="&lt;Group&gt;">
			<g id="&lt;Group&gt;">
				<path id="&lt;Path&gt;" class="shp1" d="M678.59 276.47L666.91 269.73C665.83 269.1 665.25 267.6 665.61 266.37C665.98 265.14 667.16 264.65 668.24 265.28L679.92 272.02C681 272.65 681.58 274.15 681.22 275.38C680.85 276.61 679.67 277.1 678.59 276.47Z" />
				<path id="&lt;Path&gt;" class="shp1" d="M706.41 292.53L689.19 282.59C688.11 281.97 687.53 280.46 687.89 279.23C688.26 278 689.43 277.51 690.52 278.14L707.74 288.08C708.82 288.71 709.4 290.21 709.04 291.44C708.67 292.67 707.5 293.16 706.41 292.53Z" />
				<path id="&lt;Path&gt;" class="shp1" d="M655.04 328.47L643.36 321.73C642.27 321.1 641.69 319.6 642.06 318.37C642.43 317.14 643.6 316.65 644.68 317.28L656.36 324.02C657.45 324.64 658.03 326.15 657.66 327.38C657.3 328.61 656.12 329.1 655.04 328.47Z" />
				<path id="&lt;Path&gt;" class="shp1" d="M679.84 342.79L662.61 332.85C661.53 332.22 660.95 330.72 661.32 329.49C661.68 328.26 662.86 327.77 663.94 328.39L681.16 338.34C682.25 338.96 682.83 340.47 682.46 341.7C682.1 342.93 680.92 343.41 679.84 342.79Z" />
				<path id="&lt;Path&gt;" class="shp1" d="M643.6 267.2L636.31 262.99C635.22 262.37 634.64 260.86 635.01 259.63C635.38 258.4 636.55 257.92 637.64 258.54L644.93 262.75C646.02 263.38 646.6 264.88 646.23 266.11C645.86 267.34 644.69 267.83 643.6 267.2Z" />
				<path id="&lt;Path&gt;" class="shp1" d="M665.56 290.81L643.27 277.94C642.18 277.32 641.6 275.81 641.97 274.58C642.33 273.35 643.51 272.87 644.59 273.49L666.89 286.36C667.97 286.99 668.55 288.49 668.18 289.72C667.82 290.95 666.64 291.44 665.56 290.81Z" />
				<path id="&lt;Path&gt;" class="shp1" d="M645 300.81L637.7 296.6C636.62 295.97 636.04 294.47 636.4 293.24C636.77 292.01 637.95 291.52 639.03 292.14L646.33 296.36C647.41 296.98 647.99 298.49 647.62 299.72L647.62 299.72C647.26 300.94 646.08 301.43 645 300.81Z" />
				<path id="&lt;Path&gt;" class="shp1" d="M682.53 366.21L663.04 354.96C661.95 354.33 661.37 352.83 661.74 351.6C662.11 350.37 663.28 349.88 664.37 350.5L683.85 361.76C684.94 362.38 685.52 363.89 685.15 365.11C684.78 366.34 683.61 366.83 682.53 366.21Z" />
				<path id="&lt;Path&gt;" class="shp1" d="M636.82 317.95L632.14 315.25C631.05 314.62 630.47 313.12 630.84 311.89C631.21 310.66 632.38 310.17 633.46 310.8L638.15 313.5C639.23 314.13 639.81 315.63 639.45 316.86C639.08 318.09 637.9 318.58 636.82 317.95Z" />
				<path id="&lt;Path&gt;" class="shp1" d="M632.39 337.26L626.57 333.9C625.49 333.28 624.91 331.77 625.27 330.54L625.27 330.54C625.64 329.31 626.82 328.83 627.9 329.45L633.72 332.81C634.8 333.43 635.38 334.94 635.01 336.17C634.65 337.4 633.47 337.89 632.39 337.26Z" />
				<path id="&lt;Path&gt;" class="shp1" d="M655.01 350.32L639.68 341.47C638.6 340.85 638.02 339.34 638.38 338.11C638.75 336.88 639.92 336.39 641.01 337.02L656.34 345.87C657.43 346.5 658.01 348 657.64 349.23C657.27 350.46 656.1 350.95 655.01 350.32Z" />
				<path id="&lt;Path&gt;" class="shp1" d="M634.81 349.59L623.79 343.23C622.71 342.6 622.12 341.1 622.49 339.87C622.86 338.64 624.03 338.15 625.12 338.78L636.14 345.14C637.23 345.77 637.81 347.27 637.44 348.5C637.07 349.73 635.9 350.22 634.81 349.59Z" />
				<path id="&lt;Path&gt;" class="shp1" d="M699.24 375.91L692.16 371.82C691.08 371.19 690.5 369.69 690.87 368.46C691.23 367.23 692.41 366.74 693.49 367.37L700.57 371.46C701.66 372.08 702.24 373.59 701.87 374.81C701.5 376.04 700.33 376.53 699.24 375.91Z" />
				<path id="&lt;Path&gt;" class="shp1" d="M672.14 316.48L652.65 305.23C651.57 304.6 650.99 303.1 651.35 301.87C651.72 300.64 652.89 300.15 653.98 300.78L673.47 312.03C674.55 312.65 675.13 314.16 674.76 315.39C674.4 316.61 673.22 317.1 672.14 316.48Z" />
			</g>
			<path id="&lt;Path&gt;" class="shp16" d="M674.45 306.88L640.48 287.27C639.4 286.64 638.82 285.14 639.19 283.91C639.55 282.68 640.73 282.19 641.81 282.82L675.78 302.43C676.86 303.05 677.44 304.56 677.07 305.79C676.71 307.01 675.53 307.5 674.45 306.88Z" />
			<path id="&lt;Path&gt;" class="shp16" d="M654.41 317.17L634.92 305.92C633.84 305.3 633.25 303.79 633.62 302.56C633.99 301.33 635.16 300.85 636.25 301.47L655.73 312.72C656.82 313.35 657.4 314.85 657.03 316.08C656.67 317.31 655.49 317.8 654.41 317.17Z" />
			<path id="&lt;Path&gt;" class="shp16" d="M686.92 325.01L679.84 320.92C678.75 320.3 678.17 318.79 678.54 317.57C678.91 316.34 680.08 315.85 681.17 316.47L688.25 320.56C689.33 321.19 689.91 322.69 689.54 323.92C689.18 325.15 688 325.64 686.92 325.01Z" />
			<path id="&lt;Path&gt;" class="shp16" d="M758.94 322.86L717.01 298.65C715.93 298.03 715.35 296.52 715.71 295.29C716.08 294.07 717.26 293.58 718.34 294.2L760.27 318.41C761.35 319.04 761.93 320.54 761.57 321.77C761.2 323 760.02 323.49 758.94 322.86Z" />
			<path id="&lt;Path&gt;" class="shp17" d="M652.78 338.1L629.35 324.58C628.27 323.95 627.69 322.45 628.06 321.22C628.42 319.99 629.6 319.5 630.68 320.12L654.11 333.65C655.19 334.27 655.77 335.78 655.41 337.01C655.04 338.24 653.86 338.73 652.78 338.1Z" />
			<path id="&lt;Path&gt;" class="shp17" d="M656.31 263.61L639.09 253.67C638.01 253.04 637.43 251.54 637.79 250.31C638.16 249.08 639.33 248.59 640.42 249.21L657.64 259.16C658.72 259.78 659.3 261.29 658.94 262.52C658.57 263.74 657.4 264.23 656.31 263.61Z" />
			<path id="&lt;Path&gt;" class="shp16" d="M631.21 358.45L611.27 346.93C610.18 346.31 609.6 344.8 609.97 343.57C610.34 342.34 611.51 341.86 612.59 342.48L632.54 354C633.62 354.62 634.21 356.13 633.84 357.36C633.47 358.58 632.3 359.07 631.21 358.45Z" />
		</g>
		<g id="&lt;Group&gt;">
			<path id="&lt;Path&gt;" class="shp1" d="M763.65 301.3L755.11 296.37C754.32 295.91 753.89 294.81 754.16 293.91C754.43 293.01 755.29 292.66 756.08 293.11L764.62 298.04C765.41 298.5 765.83 299.6 765.57 300.5C765.3 301.4 764.44 301.75 763.65 301.3Z" />
			<path id="&lt;Path&gt;" class="shp1" d="M779.93 310.7L771.39 305.77C770.6 305.31 770.18 304.21 770.45 303.32C770.71 302.42 771.57 302.06 772.37 302.52L780.9 307.45C781.69 307.9 782.12 309 781.85 309.9C781.58 310.8 780.72 311.16 779.93 310.7Z" />
			<path id="&lt;Path&gt;" class="shp1" d="M796.22 320.1L787.68 315.17C786.89 314.71 786.46 313.62 786.73 312.72C787 311.82 787.86 311.46 788.65 311.92L797.19 316.85C797.98 317.3 798.4 318.4 798.14 319.3C797.87 320.2 797.01 320.56 796.22 320.1Z" />
			<path id="&lt;Path&gt;" class="shp17" d="M804.22 324.73L803.96 324.57C803.17 324.12 802.75 323.02 803.01 322.12C803.28 321.22 804.14 320.86 804.93 321.32L805.19 321.47C805.98 321.93 806.41 323.03 806.14 323.93C805.87 324.83 805.01 325.19 804.22 324.73Z" />
		</g>
		<path id="&lt;Compound Path&gt;" fill-rule="evenodd" class="shp18" d="M363.59 424.64C358.19 424.64 352.79 423.25 347.97 420.46L290.78 387.44C288.3 386.01 286.82 383.45 286.82 380.59C286.82 377.72 288.3 375.16 290.78 373.73L347.97 340.71C357.6 335.15 369.58 335.14 379.22 340.71L436.41 373.73C438.89 375.16 440.37 377.73 440.37 380.59C440.37 383.45 438.89 386.01 436.41 387.45L379.22 420.46C374.4 423.25 369 424.64 363.59 424.64ZM349.83 417.24C358.32 422.14 368.87 422.14 377.36 417.24L434.55 384.22C435.86 383.46 436.65 382.11 436.65 380.59C436.65 379.07 435.86 377.71 434.55 376.95L377.36 343.93C368.86 339.03 358.32 339.03 349.83 343.93L292.64 376.95C291.33 377.71 290.54 379.07 290.54 380.59C290.54 382.1 291.33 383.46 292.64 384.22L349.83 417.24Z" />
		<g id="&lt;Group&gt;">
			<path id="&lt;Path&gt;" class="shp5" d="M391.08 397.4C375.74 406.26 350.87 406.26 335.53 397.4C320.19 388.54 320.19 374.18 335.53 365.33C350.87 356.47 375.74 356.47 391.08 365.33C406.42 374.19 406.42 388.54 391.08 397.4Z" />
			<path id="&lt;Path&gt;" class="shp19" d="M411.13 340.86C411.13 347.59 406.68 354.32 397.79 359.45C380.01 369.72 351.18 369.72 333.39 359.45C324.5 354.32 320.06 347.59 320.06 340.86L309.65 219.73L421.53 219.73L411.13 340.86Z" />
			<path id="&lt;Path&gt;" class="shp13" d="M419.47 243.71L411.13 340.86C411.13 347.59 406.68 354.32 397.79 359.45C390.2 363.84 380.6 366.33 370.71 366.97C384.13 364.13 391.11 359.12 394.74 354.85C397.24 351.9 398.57 348.15 398.74 344.29L402.46 255.69C378.39 265.9 343.11 263.17 321.73 248.98C317.38 246.09 313.93 242.94 311.36 239.66L309.65 219.73L421.53 219.73L419.47 243.71Z" />
			<path id="&lt;Path&gt;" class="shp13" d="M405.15 242.57C383.3 255.18 347.88 255.18 326.04 242.56C304.19 229.95 304.19 209.5 326.03 196.89C347.88 184.27 383.3 184.28 405.15 196.89C427 209.5 427 229.95 405.15 242.57Z" />
			<path id="&lt;Path&gt;" class="shp13" d="M399.66 228.01C380.85 238.88 350.34 238.88 331.52 228.01C312.7 217.15 312.7 199.53 331.52 188.67C350.34 177.81 380.85 177.81 399.66 188.67C418.48 199.54 418.48 217.15 399.66 228.01Z" />
			<path id="&lt;Path&gt;" class="shp20" d="M407.54 243.92C384.37 257.3 346.81 257.3 323.65 243.92C311.48 236.9 305.72 227.58 306.33 218.38L306.32 218.39L306.34 218.23C306.35 217.98 306.39 217.73 306.42 217.47L307.44 207.82L307.45 207.85C307.68 199.43 313.34 191.04 324.47 184.62C347.18 171.51 384 171.51 406.72 184.62C417.57 190.89 423.23 199.02 423.71 207.22L423.75 207.1L424.83 217.95C424.83 218 424.84 218.06 424.84 218.11L424.85 218.21L424.85 218.2C425.55 227.46 419.78 236.85 407.54 243.92Z" />
			<path id="&lt;Path&gt;" class="shp21" d="M399.66 228.01C380.85 238.88 350.34 238.88 331.52 228.01C312.7 217.15 312.7 199.53 331.52 188.67C350.34 177.81 380.85 177.81 399.66 188.67C418.48 199.54 418.48 217.15 399.66 228.01Z" />
			<path id="&lt;Path&gt;" class="shp22" d="M397.38 228.01C378.56 238.88 348.05 238.88 329.23 228.01C310.42 217.15 310.42 199.53 329.23 188.67C348.05 177.81 378.56 177.81 397.38 188.67C416.19 199.54 416.19 217.15 397.38 228.01Z" />
			<path id="&lt;Path&gt;" class="shp13" d="M330.85 227.58C312.74 216.69 312.94 199.4 331.52 188.67C350.34 177.81 380.85 177.81 399.66 188.67C402.12 190.09 404.24 191.63 406.05 193.25C405.82 193.11 405.62 192.95 405.38 192.82C386.56 181.95 356.05 181.95 337.24 192.81C320.88 202.26 318.76 216.8 330.85 227.58Z" />
			<path id="&lt;Path&gt;" class="shp23" d="M317.6 210.76C316.41 202.85 321.05 194.72 331.52 188.67C350.34 177.81 380.85 177.81 399.66 188.67C410.14 194.72 414.77 202.86 413.59 210.76C412.64 204.46 408.01 198.32 399.66 193.5C380.85 182.64 350.34 182.63 331.52 193.5C323.18 198.32 318.54 204.46 317.6 210.76Z" />
			<path id="&lt;Compound Path&gt;" fill-rule="evenodd" class="shp24" d="M406.66 232.54C383.75 245.5 346.79 245.17 324.11 231.81C301.42 218.45 301.61 197.11 324.52 184.15C347.44 171.19 384.4 171.51 407.08 184.87C429.76 198.24 429.57 219.58 406.66 232.54ZM399.66 188.67C380.85 177.81 350.34 177.81 331.52 188.67C312.7 199.53 312.7 217.15 331.52 228.01C337.81 231.64 345.41 234.03 353.43 235.23L354.3 232.36C354.66 231.2 355.73 230.41 356.94 230.41L374.24 230.41C375.46 230.41 376.53 231.2 376.88 232.36L377.75 235.23C385.78 234.03 393.38 231.64 399.66 228.01C418.48 217.15 418.48 199.54 399.66 188.67Z" />
			<g id="&lt;Group&gt;">
				<path id="&lt;Path&gt;" class="shp1" d="M413.73 207.31C413.3 200.54 408.62 193.84 399.66 188.67C380.85 177.81 350.34 177.81 331.52 188.67C322.57 193.84 317.88 200.54 317.45 207.31C316.97 199.85 321.66 192.3 331.52 186.61C350.34 175.75 380.85 175.75 399.66 186.61C409.53 192.31 414.21 199.85 413.73 207.31Z" />
				<path id="&lt;Path&gt;" class="shp1" d="M423.93 207.61C424.42 216.65 418.67 225.74 406.66 232.54C383.75 245.5 346.79 245.17 324.11 231.81C312.41 224.92 306.81 215.91 307.26 207.02C307.71 215.23 313.31 223.39 324.11 229.75C346.79 243.11 383.75 243.44 406.66 230.48C417.76 224.2 423.5 215.96 423.93 207.61Z" />
			</g>
			<path id="&lt;Path&gt;" class="shp25" d="M370.76 236.73L360.42 236.73C359.7 236.73 359.11 236.15 359.11 235.42L359.11 235.24C359.11 234.52 359.7 233.94 360.42 233.94L370.76 233.94C371.48 233.94 372.07 234.52 372.07 235.24L372.07 235.42C372.07 236.15 371.48 236.73 370.76 236.73Z" />
			<path id="&lt;Path&gt;" class="shp26" d="M372.07 235.24L372.07 235.43C372.07 235.55 372.03 235.66 372 235.77C371.84 235.22 371.36 234.81 370.76 234.81L360.42 234.81C359.82 234.81 359.34 235.22 359.18 235.77C359.15 235.66 359.11 235.55 359.11 235.43L359.11 235.24C359.11 234.52 359.7 233.94 360.42 233.94L370.76 233.94C371.48 233.94 372.07 234.52 372.07 235.24Z" />
			<g id="&lt;Group&gt;">
				<path id="&lt;Path&gt;" class="shp16" d="M367.18 328.42C365.91 333.19 361.01 336.03 356.24 334.76C351.47 333.49 348.63 328.6 349.9 323.83C351.17 319.06 355.67 317.71 360.44 318.97C365.21 320.24 368.44 323.65 367.18 328.42Z" />
				<path id="&lt;Path&gt;" class="shp16" d="M374.21 319C372.41 320.76 370.11 320.54 368.58 318.97C367.06 317.41 366.88 315.1 368.68 313.34C370.48 311.59 373.9 310.72 375.43 312.28C376.96 313.85 376.01 317.25 374.21 319Z" />
				<path id="&lt;Path&gt;" class="shp16" d="M364.86 311.53C364.42 314 362.42 315.16 360.27 314.77C358.11 314.39 356.63 312.62 357.07 310.14C357.51 307.66 359.79 304.97 361.94 305.35C364.1 305.73 365.31 309.05 364.86 311.53Z" />
				<path id="&lt;Path&gt;" class="shp16" d="M353.34 310.38C354.3 312.71 353.23 314.76 351.21 315.59C349.18 316.42 346.98 315.72 346.02 313.39C345.06 311.07 345.54 307.57 347.56 306.74C349.58 305.91 352.38 308.06 353.34 310.38Z" />
			</g>
		</g>
		<path id="&lt;Path&gt;" class="shp27" d="M362.37 235.33C372.01 231.02 376.89 222.89 377.03 210.96C377.2 195.9 374.01 199.52 359.46 168.03C349.76 147.03 350.1 128.78 360.48 113.26C350.55 142.01 375.21 152.97 387.87 188.91C396.31 212.87 390.11 228.35 369.26 235.33L362.37 235.33Z" />
		<path id="&lt;Path&gt;" class="shp27" d="M372.07 118.26C369.9 103.93 375.54 89.54 388.98 75.09C377.09 101.65 373.09 121.48 376.98 134.59C373.83 126.26 372.2 120.82 372.07 118.26Z" />
	</g>
</svg>